<svg width="26" height="27" viewBox="0 0 26 27" fill="none" xmlns="http://www.w3.org/2000/svg">
<path d="M13.7446 0.447364L13.7444 0.447387C12.9702 0.535307 12.4955 0.589343 12.2005 0.625508C12.393 0.733713 12.6264 0.86307 12.8624 0.99256C13.1427 1.14636 13.4259 1.29985 13.6476 1.41782C13.7585 1.47687 13.8533 1.52659 13.9243 1.56285C13.9838 1.59323 14.0159 1.60851 14.0276 1.61406C14.0296 1.61504 14.031 1.61571 14.0318 1.61611C14.0471 1.62029 14.0836 1.62824 14.1372 1.63616C14.1937 1.64451 14.2563 1.65094 14.3104 1.65302L14.3104 1.65296L14.3158 1.65329C14.3968 1.65817 14.5049 1.65541 14.8161 1.6218C15.1254 1.5884 15.6211 1.52631 16.4701 1.41752L16.4701 1.41752C17.0251 1.34643 17.5255 1.27912 17.8946 1.22685C17.9437 1.21988 17.9905 1.21319 18.0348 1.2068C17.8308 1.10489 17.583 0.982279 17.3334 0.859621C17.0412 0.715994 16.747 0.572584 16.5184 0.462546C16.404 0.407485 16.3066 0.361058 16.2342 0.327226C16.1715 0.2979 16.1377 0.282933 16.1262 0.277837C16.1226 0.277154 16.1166 0.27609 16.1079 0.274752C16.0882 0.271752 16.062 0.268496 16.0308 0.265343C15.9684 0.259044 15.8923 0.253805 15.8194 0.251491L15.8194 0.251503L15.8169 0.2514C15.6021 0.24245 15.2867 0.27098 13.7446 0.447364Z" fill="black" stroke="black" stroke-width="0.5"/>
<path d="M8.54016 1.02707L8.54054 1.02702C9.11187 0.962157 9.655 0.903542 10.0697 0.860855C10.2771 0.839506 10.452 0.822185 10.582 0.810071C10.6471 0.804008 10.7003 0.799302 10.7406 0.796057C10.7607 0.794434 10.777 0.79322 10.7896 0.792393L10.8048 0.79149L10.8094 0.791282L10.8106 0.791236L10.811 0.791226L10.8111 0.791224L10.8111 0.791223L10.8058 0.541279M8.54016 1.02707L11.206 2.09212C11.7953 2.01596 12.3413 1.9442 12.7464 1.88963C12.8678 1.87328 12.9764 1.85849 13.0695 1.84561C12.8729 1.73414 12.6232 1.59499 12.3544 1.44749L12.3537 1.44711C11.7316 1.10317 11.4332 0.939759 11.2378 0.859266C11.1462 0.821567 11.0863 0.806113 11.0321 0.798572C10.9738 0.790455 10.9131 0.789989 10.8088 0.791261L10.8058 0.541279M8.54016 1.02707C7.64228 1.12763 7.09627 1.19008 6.7653 1.23611M8.54016 1.02707L12.4747 1.22832C11.2455 0.548774 11.2155 0.536283 10.8058 0.541279M10.8058 0.541279C10.6884 0.543778 9.65657 0.648707 8.51234 0.77862C7.32123 0.912024 6.73907 0.979415 6.45952 1.03091C6.51363 1.06881 6.58959 1.12009 6.68189 1.18117C6.70851 1.19878 6.73636 1.21712 6.7653 1.23611M6.7653 1.23611C6.94839 1.35623 7.17482 1.50182 7.40487 1.6477C7.67122 1.81661 7.94117 1.98509 8.15288 2.11401C8.25891 2.17857 8.3492 2.23252 8.41669 2.27144C8.45058 2.29098 8.47725 2.30588 8.49656 2.31615C8.50304 2.3196 8.50779 2.32203 8.51103 2.32366C8.51467 2.32442 8.52034 2.32555 8.52841 2.32695C8.54822 2.33039 8.5746 2.33415 8.60619 2.33787C8.66891 2.34525 8.74509 2.35162 8.81784 2.35512C9.05263 2.36398 9.23803 2.34598 11.206 2.09213L6.7653 1.23611ZM6.43306 1.03591C6.22432 1.07644 6.20405 1.10779 6.21388 1.15587L6.43306 1.03591Z" stroke="black" stroke-width="0.5"/>
<path d="M2.9345 1.64906L2.93432 1.64908C2.30522 1.72023 1.71827 1.78885 1.27953 1.84244C1.06966 1.86808 0.894318 1.89021 0.764729 1.90749C0.804341 1.93793 0.847669 1.97104 0.894635 2.00675C1.1774 2.22178 1.58725 2.52762 2.10022 2.90579L1.95187 3.10702L2.09993 2.90558C2.105 2.9093 2.10997 2.91296 2.11484 2.91654C2.2389 3.00776 2.30078 3.05326 2.37289 3.08437C2.4389 3.11285 2.52693 3.13384 2.70048 3.13496C3.05707 3.13726 3.67526 3.05827 4.97853 2.89174L5.07781 2.87905C5.07785 2.87905 5.07789 2.87904 5.07793 2.87904C6.34914 2.71529 7.03795 2.62623 7.41988 2.57247C7.47639 2.56451 7.52571 2.55739 7.56885 2.55098C7.56816 2.55053 7.56746 2.55007 7.56676 2.54962C7.37123 2.42206 7.11359 2.25793 6.8528 2.0943C6.59201 1.93066 6.32921 1.76823 6.12338 1.64404C6.0203 1.58184 5.93261 1.5299 5.86705 1.49239C5.83413 1.47355 5.80821 1.45917 5.7894 1.44923C5.77902 1.44374 5.77319 1.44089 5.77088 1.43976C5.67489 1.40663 5.59036 1.38499 5.22179 1.40935C4.83701 1.43477 4.17809 1.50755 2.9345 1.64906Z" fill="black" stroke="black" stroke-width="0.5"/>
<path d="M15.0609 2.19991C15.0655 2.20254 15.0702 2.20517 15.0749 2.20783C15.3185 2.34528 15.6386 2.52129 15.9615 2.69607C16.2844 2.87085 16.6091 3.04377 16.8618 3.17509C16.9884 3.24084 17.0958 3.29558 17.1755 3.33473C17.2155 3.35439 17.247 3.36937 17.2698 3.37961C17.2811 3.38472 17.2879 3.38758 17.2912 3.38894C17.4082 3.41714 17.512 3.43082 17.8331 3.39944C18.1732 3.36619 18.7313 3.28501 19.7623 3.12966L19.7624 3.12965C20.2945 3.04971 20.7878 2.97539 21.1538 2.92013L21.4134 2.88083C21.1709 2.75642 20.8605 2.60074 20.5451 2.44492C20.2058 2.27728 19.8618 2.11005 19.5917 1.982C19.4564 1.9179 19.3407 1.86411 19.2538 1.82513C19.178 1.79118 19.1383 1.77512 19.1251 1.76982C19.1212 1.76823 19.1197 1.76761 19.1203 1.76777L19.1203 1.76777L19.1187 1.76736C19.023 1.74213 18.911 1.72801 18.5599 1.75727C18.2072 1.78666 17.6404 1.85694 16.6466 1.98587C16.1324 2.05327 15.654 2.11751 15.2981 2.16675C15.2112 2.17877 15.1317 2.18988 15.0609 2.19991Z" stroke="black" stroke-width="0.5"/>
<path d="M0.41221 4.62216L0.412216 4.62224C0.50361 5.83415 0.553154 6.47057 0.594925 6.83515C0.635805 7.19195 0.666166 7.25788 0.707929 7.34059C0.712311 7.34901 0.733934 7.38572 0.913912 7.55872C1.0883 7.72635 1.38836 8.00172 1.91763 8.48345C2.0658 8.61814 2.20572 8.74203 2.31952 8.84019C2.31952 8.84014 2.31952 8.84008 2.31952 8.84002C2.31412 8.70278 2.3051 8.5116 2.29344 8.28342C2.27015 7.82733 2.23646 7.22634 2.20057 6.6198C2.16468 6.01327 2.12662 5.4018 2.0946 4.92476C2.07858 4.68615 2.0641 4.48176 2.05219 4.32864C2.04623 4.25201 2.04096 4.18898 2.03652 4.14126C2.03429 4.11738 2.03234 4.09804 2.03066 4.08314L2.02852 4.06531L2.0278 4.06009C2.02761 4.05879 2.02752 4.05823 2.02752 4.05827L2.02734 4.05719C2.00775 3.93853 1.97605 3.83007 1.93887 3.74307C1.90014 3.65244 1.8626 3.60173 1.84066 3.58154C1.75611 3.50487 1.31048 3.16961 0.861805 2.84094C0.641173 2.67932 0.425733 2.52359 0.263128 2.40859C0.261234 2.40725 0.259346 2.40591 0.257468 2.40459C0.257845 2.41137 0.258236 2.41833 0.258641 2.42547C0.265831 2.55218 0.277164 2.73123 0.29182 2.94982C0.321116 3.38678 0.363534 3.97939 0.41221 4.62216ZM2.32485 9.04951C2.32486 9.04955 2.32488 9.04924 2.32491 9.04852C2.3249 9.04853 2.32488 9.04855 2.32486 9.04856C2.32484 9.04914 2.32484 9.04947 2.32485 9.04951Z" fill="black" stroke="black" stroke-width="0.5"/>
<path d="M9.90314 2.86075C9.71835 2.88575 9.56231 2.90714 9.44433 2.92365C9.44775 2.9259 9.45119 2.92816 9.45464 2.93044C9.67546 3.07562 9.97073 3.26519 10.2709 3.45508C10.5711 3.64496 10.875 3.83442 11.113 3.9794C11.2322 4.05199 11.3338 4.11277 11.4097 4.15668C11.4478 4.17872 11.478 4.19568 11.5001 4.20748C11.512 4.21386 11.519 4.21732 11.5221 4.21887C11.5703 4.23338 11.6661 4.24967 11.7865 4.25905C11.9097 4.26864 12.034 4.26911 12.1214 4.25996L12.1232 4.25978C12.256 4.24686 13.3456 4.08736 14.4301 3.92502C14.9693 3.84433 15.5029 3.76358 15.9087 3.70115C16.0596 3.67793 16.1926 3.65727 16.3016 3.64012C16.0679 3.50579 15.7513 3.32727 15.4064 3.1358C14.6932 2.74069 14.3561 2.55501 14.1423 2.46486C14.0416 2.42238 13.9789 2.40592 13.9238 2.39809C13.8638 2.38955 13.8036 2.38954 13.6929 2.39019L13.6914 2.1402L13.6963 2.39015L13.6962 2.39015L13.6959 2.39016L13.6946 2.39021L13.6902 2.39042L13.6752 2.39137C13.6628 2.39225 13.6466 2.39357 13.6267 2.39536C13.5869 2.39894 13.5344 2.40418 13.4702 2.41098C13.3418 2.42457 13.1695 2.44412 12.9634 2.46843C12.5514 2.51701 12.0065 2.58434 11.4126 2.66045C10.8396 2.73535 10.3042 2.80648 9.90314 2.86075Z" stroke="black" stroke-width="0.5"/>
<path d="M9.85905 3.70916C10.9208 4.3812 11.0682 4.48364 11.0682 4.5361C11.0682 4.67601 11.0358 4.6835 8.33008 5.08823L8.21944 5.10478C5.88928 5.45336 5.80959 5.46528 5.50947 5.45298C5.3146 5.44549 5.15721 5.4255 5.08975 5.40052L9.85905 3.70916ZM9.85905 3.70916C9.19449 3.28694 8.60489 2.92968 8.54743 2.91219L9.85905 3.70916ZM5.18434 5.16828C5.18907 5.1695 5.1961 5.17118 5.20582 5.17314C5.22552 5.17711 5.25126 5.18127 5.28297 5.18526C5.34639 5.19322 5.42707 5.19963 5.51908 5.20317L5.51971 5.20319C5.7935 5.21441 5.83534 5.20863 8.29309 4.84098L8.32492 5.05374L8.29309 4.84098C9.56948 4.65005 10.243 4.54864 10.6001 4.48041C10.4222 4.3629 10.1475 4.18757 9.72534 3.9204L9.72498 3.92017C9.39385 3.70979 9.08178 3.51584 8.84584 3.3726C8.72772 3.30089 8.62965 3.24248 8.55821 3.20126C8.52232 3.18055 8.49458 3.16501 8.47505 3.15455C8.47264 3.15326 8.47047 3.15211 8.46854 3.1511C8.46378 3.15032 8.45766 3.14938 8.45002 3.14831C8.42734 3.14515 8.39813 3.14181 8.36414 3.13861C8.29615 3.13222 8.21461 3.12694 8.13763 3.12461L8.13603 3.12455C7.89089 3.11555 7.67472 3.14041 5.52939 3.41991C4.88381 3.50482 4.28703 3.5841 3.84578 3.64339C3.6251 3.67304 3.44352 3.69767 3.31426 3.71549C3.27785 3.72051 3.24569 3.72498 3.21806 3.72885C3.37804 3.85524 3.63415 4.04628 4.03246 4.34314L3.88308 4.54358L4.03228 4.34301C4.33865 4.57092 4.62382 4.77904 4.83929 4.93228C4.94722 5.00904 5.03644 5.07116 5.10159 5.11486C5.13437 5.13684 5.15932 5.15299 5.17667 5.16364C5.17966 5.16548 5.18221 5.16701 5.18434 5.16828ZM10.8622 4.66589C10.8662 4.67064 10.8689 4.67311 10.8693 4.67316C10.8696 4.6732 10.8676 4.67082 10.8622 4.66589Z" stroke="black" stroke-width="0.5"/>
<path d="M22.5729 3.19947L22.5729 3.19948L22.5729 3.19947ZM22.5729 3.19947C22.4205 3.162 22.1582 3.14201 22.0233 3.1545C21.7735 3.17949 17.946 3.76659 17.8786 3.78908L22.5729 3.19947ZM21.1741 5.40315L21.1745 5.40317C21.3749 5.41371 21.4479 5.40553 23.4516 5.05431L23.4518 5.05429C24.0232 4.95448 24.5502 4.85968 24.9384 4.78802C25.0337 4.77044 25.1204 4.75427 25.1974 4.73978C25.1605 4.7209 25.1214 4.701 25.0804 4.68019C24.7979 4.53696 24.4272 4.35312 24.0536 4.17044C23.68 3.98776 23.3044 3.80672 23.0123 3.66905C22.8661 3.60015 22.7417 3.54258 22.6494 3.50125C22.603 3.48051 22.5661 3.46447 22.5391 3.45332C22.518 3.44458 22.509 3.44144 22.5081 3.44101C22.3803 3.41061 22.1517 3.39391 22.0473 3.40335C21.9267 3.41567 20.9204 3.56659 19.9204 3.71984C19.4224 3.79617 18.9302 3.87239 18.5584 3.93091C18.4607 3.94629 18.3714 3.96044 18.2926 3.97302C18.3272 3.99263 18.3639 4.0133 18.4024 4.03491C18.6706 4.18548 19.0226 4.37968 19.3774 4.57332C19.7323 4.76696 20.0892 4.95961 20.3674 5.10709C20.5066 5.18089 20.6252 5.24295 20.7137 5.28805C20.7925 5.32819 20.8336 5.34757 20.8463 5.35358C20.8497 5.35516 20.8511 5.35582 20.8507 5.35569C20.9024 5.37294 21.0369 5.39617 21.1741 5.40315ZM25.5731 4.66547C25.573 4.66547 25.5716 4.6658 25.5694 4.66644C25.572 4.66579 25.5732 4.66547 25.5731 4.66547ZM25.5455 4.9253C25.5465 4.926 25.5472 4.92648 25.5476 4.92672C25.5476 4.92672 25.5476 4.92672 25.5476 4.92671C25.5473 4.92647 25.5466 4.926 25.5455 4.9253ZM17.9356 4.03234C17.9356 4.03234 17.9364 4.03218 17.9377 4.03188L17.9356 4.03234Z" fill="black" stroke="black" stroke-width="0.5"/>
<path d="M5.0998 11.6863C5.02236 11.6513 3.04619 9.85998 2.94375 9.73256C2.84382 9.60765 2.76637 9.40279 2.7214 9.14546C2.70142 9.03553 2.64645 8.23607 2.59899 7.37165L5.0998 11.6863ZM5.0998 11.6863C5.14727 11.7087 5.16976 11.7062 5.20723 11.6713L5.0998 11.6863ZM2.84861 7.35794L2.84857 7.35727C2.83208 7.07116 2.81448 6.7624 2.79732 6.46122C2.76254 5.85102 2.72953 5.27193 2.7111 4.97533L2.84861 7.35794ZM2.84861 7.35794C2.87229 7.78923 2.89783 8.20401 2.91991 8.5243M2.84861 7.35794L2.91991 8.5243M2.96739 9.10079L2.96767 9.10242M2.96739 9.10079L2.96738 9.10074L2.96767 9.10242M2.96739 9.10079C2.96742 9.10098 2.96723 9.09993 2.96683 9.09723M2.96739 9.10079L2.96683 9.09723M2.96767 9.10242C3.00952 9.34189 3.077 9.49893 3.13897 9.57639L2.94376 9.73256L3.1386 9.57593L3.13866 9.57599C3.14016 9.57755 3.16756 9.60604 3.23549 9.67105C3.29812 9.73099 3.38295 9.81056 3.48301 9.9034C3.68295 10.0889 3.94122 10.3252 4.19903 10.5588C4.45686 10.7925 4.71352 11.0229 4.91024 11.1969C4.96023 11.241 5.00613 11.2814 5.04705 11.3171M2.96767 9.10242L5.04705 11.3171M5.04705 11.3171C5.04909 11.2084 5.04495 11.0525 5.03492 10.8227L5.0349 10.8224C4.9999 9.99739 4.96741 9.17248 4.90994 7.6309C4.89624 7.26715 4.88068 6.92052 4.8667 6.65497C4.85971 6.52209 4.85315 6.41026 4.84746 6.32704C4.84461 6.28534 4.84204 6.25177 4.83981 6.22676C4.83804 6.2069 4.83684 6.19674 4.83642 6.19323C4.83624 6.1917 4.83621 6.19144 4.83634 6.1922L4.83609 6.19077C4.79948 5.98251 4.73284 5.81028 4.68416 5.74034C4.68239 5.73853 4.67956 5.73571 4.67541 5.73177C4.66278 5.71974 4.6438 5.70273 4.61737 5.68012C4.56472 5.63512 4.48964 5.57403 4.39178 5.49673C4.19647 5.34245 3.91729 5.12901 3.56052 4.86081L3.56047 4.86078C3.25891 4.63398 2.98184 4.42852 2.77891 4.27997C2.74075 4.25204 2.7053 4.22618 2.67287 4.20262C2.67287 4.20278 2.67287 4.20294 2.67288 4.2031C2.67384 4.24865 2.67609 4.31249 2.67949 4.39058C2.68627 4.54636 2.69742 4.75398 2.7111 4.97525L5.04705 11.3171ZM2.91991 8.5243C2.93095 8.68453 2.94109 8.82043 2.94965 8.92262M2.91991 8.5243L2.94965 8.92262M2.94965 8.92262C2.95393 8.97378 2.95776 9.01566 2.96104 9.04753M2.94965 8.92262L2.96104 9.04753M2.96104 9.04753C2.96268 9.06346 2.96411 9.0762 2.96533 9.08593M2.96104 9.04753L2.96533 9.08593M2.96533 9.08593L2.96683 9.09723M2.96533 9.08593L2.96683 9.09723M5.23513 11.4765C5.23894 11.4793 5.23831 11.4786 5.23442 11.4759L5.23513 11.4765ZM5.02814 11.5011C5.02821 11.5013 5.02888 11.5001 5.02992 11.4971C5.02859 11.4993 5.02807 11.5009 5.02814 11.5011Z" stroke="black" stroke-width="0.5"/>
<path d="M14.9912 6.38801C14.9915 6.38811 14.9916 6.38819 14.9918 6.38825C15.0681 6.40986 15.1531 6.42206 15.3878 6.41969V6.41967H15.3903C15.6667 6.41967 15.7959 6.40127 17.8949 6.02878L17.8954 6.0287C18.5072 5.92132 19.0733 5.82083 19.4929 5.74533C19.683 5.71114 19.8427 5.68211 19.9629 5.65992C19.9227 5.63716 19.8793 5.6126 19.8329 5.58645C19.5666 5.43631 19.2049 5.2343 18.812 5.01727L18.8034 5.01251C18.015 4.577 17.6411 4.37047 17.41 4.27015C17.2995 4.2222 17.2341 4.20431 17.1798 4.19614C17.1214 4.18734 17.0651 4.18768 16.9559 4.18898C16.8992 4.19019 16.8445 4.19199 16.8024 4.19403C16.781 4.19506 16.7643 4.19609 16.7527 4.197L16.7457 4.19764C16.736 4.1995 16.7275 4.20078 16.7267 4.20091L16.688 4.20699L16.5516 4.22781C16.4352 4.24541 16.2695 4.27027 16.0668 4.30056C15.6614 4.36116 15.1074 4.44361 14.5028 4.53354C13.4083 4.69765 12.8178 4.78683 12.4959 4.84852C12.6931 4.97759 13.0132 5.17965 13.5323 5.50621L13.5323 5.50621C14.0205 5.81339 14.3721 6.03137 14.6141 6.17633C14.7352 6.24891 14.827 6.30199 14.8937 6.3384C14.9584 6.37371 14.9862 6.38582 14.9912 6.38801ZM16.7431 4.19789C16.7418 4.19804 16.742 4.19804 16.7433 4.19786L16.7431 4.19789ZM13.4004 5.7158L13.4 5.71643L13.4004 5.7158Z" stroke="black" stroke-width="0.5"/>
<path d="M10.9101 5.0751L10.9101 5.07487C10.9592 5.06656 11.0949 5.0653 11.254 5.07566C11.3288 5.08053 11.4011 5.08745 11.4607 5.09547C11.4905 5.09948 11.5156 5.10355 11.5353 5.10744C11.5451 5.10937 11.5528 5.11109 11.5585 5.11252L10.9101 5.0751ZM10.9101 5.0751L10.8994 5.07644M10.9101 5.0751L10.8994 5.07644M10.8994 5.07644C10.8999 5.07638 10.8961 5.07689 10.8844 5.07859L10.8412 5.08492L10.6874 5.1078L10.1485 5.18864C9.70018 5.25608 9.09193 5.34788 8.43245 5.4478L8.43199 5.44787M10.8994 5.07644L8.43199 5.44787M8.43199 5.44787C7.77293 5.54648 7.15902 5.64069 6.70077 5.71301C6.47155 5.74919 6.28178 5.77981 6.14496 5.80273C6.09761 5.81066 6.05698 5.81761 6.02347 5.8235M8.43199 5.44787L6.02347 5.8235M6.02347 5.8235C6.26109 6.00489 6.69315 6.32599 7.1308 6.64739C7.43021 6.86726 7.72635 7.08302 7.95299 7.24611C8.06641 7.32774 8.16177 7.3957 8.2312 7.44425C8.26605 7.46862 8.29334 7.48739 8.31268 7.5003C8.31943 7.50481 8.32428 7.50796 8.32752 7.51004C8.44598 7.55822 8.65609 7.59003 8.89053 7.57675L8.89151 7.5767C8.89151 7.5767 8.89162 7.5767 8.89187 7.57668C8.89214 7.57666 8.89256 7.57663 8.89314 7.57659L8.89802 7.57617L8.9149 7.57442C8.92908 7.57282 8.94749 7.57051 8.97038 7.56743C9.01611 7.56128 9.07671 7.55245 9.15147 7.54104C9.30082 7.51824 9.50332 7.48565 9.74975 7.44481C10.2424 7.36317 10.908 7.24901 11.6696 7.11543C13.0046 6.88124 13.6827 6.76124 14.0333 6.68488C14.0434 6.68267 14.0532 6.68051 14.0627 6.6784C14.016 6.64751 13.9643 6.61354 13.9083 6.57697C13.6543 6.41124 13.3167 6.1953 12.9749 5.97943C12.6331 5.76356 12.2881 5.54838 12.0195 5.38413C11.885 5.30192 11.7706 5.23306 11.6857 5.18344C11.6431 5.15854 11.6093 5.13927 11.5847 5.12584C11.572 5.11892 11.5643 5.11497 11.5604 5.11302L6.02347 5.8235ZM14.3094 6.84788L14.3094 6.84789L14.3094 6.84788Z" fill="black" stroke="black" stroke-width="0.5"/>
<path d="M21.6296 6.08736L21.6292 6.08748C21.511 6.12239 21.3784 6.2432 21.3031 6.45272C21.3019 6.46091 21.3004 6.47254 21.2985 6.48806C21.294 6.52504 21.2882 6.57774 21.2814 6.64488C21.2677 6.77882 21.2501 6.96545 21.2299 7.18842C21.1896 7.63411 21.1393 8.22208 21.0901 8.81755C20.991 10.0183 20.8989 11.2226 20.8989 11.379C20.8989 11.4575 20.9097 11.4985 20.9191 11.5199C20.9263 11.5365 20.9362 11.5499 20.96 11.5657L20.96 11.5657L20.962 11.5671C20.9702 11.5727 20.9745 11.575 20.9763 11.5758C20.9788 11.5763 20.9886 11.5776 21.0109 11.5761C21.0806 11.5716 21.1981 11.5474 21.442 11.4883L21.442 11.4883L21.444 11.4878C21.5675 11.459 21.8864 11.3825 22.2882 11.286C22.6154 11.2075 22.9976 11.1158 23.374 11.0259C23.7916 10.9262 24.1804 10.8308 24.4701 10.758C24.615 10.7216 24.7345 10.691 24.8202 10.6683C24.8631 10.657 24.8966 10.6479 24.9202 10.6412C24.9288 10.6387 24.9348 10.637 24.9389 10.6357C24.9744 10.6154 25.0323 10.5652 25.0918 10.4839C25.1525 10.4007 25.1941 10.3133 25.2098 10.2484C25.2099 10.2475 25.2101 10.2464 25.2103 10.245C25.2112 10.2376 25.2131 10.2235 25.216 10.2003L25.2346 10.0503C25.2501 9.92293 25.2718 9.7435 25.298 9.52511C25.3505 9.08847 25.421 8.49665 25.4972 7.85479C25.5959 7.01167 25.6625 6.42284 25.7026 6.03704C25.7227 5.84387 25.7359 5.70349 25.7432 5.60826C25.7469 5.56038 25.7488 5.52642 25.7495 5.50398C25.7496 5.50098 25.7497 5.49834 25.7497 5.49606C25.7334 5.43723 25.7076 5.4063 25.6889 5.39188C25.6709 5.37802 25.6471 5.36926 25.61 5.37508C25.2799 5.42846 24.3029 5.60094 23.3941 5.76401C22.94 5.84549 22.5041 5.92443 22.1759 5.9847C22.0118 6.01484 21.8751 6.04025 21.7766 6.05893C21.7118 6.07124 21.6707 6.07938 21.6489 6.08371C21.6337 6.08671 21.6278 6.08788 21.6296 6.08736ZM21.3045 6.4435C21.3049 6.44171 21.3051 6.44068 21.3051 6.44062L21.3045 6.4435ZM25.7542 5.5142L25.754 5.51305L25.7542 5.5142Z" fill="black" stroke="black" stroke-width="0.5"/>
<path d="M5.74122 6.50065C5.65373 6.43602 5.57785 6.3803 5.51629 6.33545C5.51344 6.37885 5.51175 6.43352 5.51175 6.50224L5.51174 6.50412C5.50929 6.8294 5.67574 11.2953 5.69539 11.5165C5.70433 11.598 5.73019 11.7075 5.7663 11.8147C5.80187 11.9204 5.84024 12.0025 5.86799 12.0451C5.87029 12.0476 5.87606 12.054 5.887 12.0653C5.90606 12.085 5.93323 12.1122 5.96838 12.1465C6.03841 12.215 6.13573 12.3077 6.25361 12.4184C6.48907 12.6396 6.80343 12.9297 7.13877 13.2351C7.72025 13.7627 8.02299 14.0358 8.19109 14.1772C8.19974 14.1844 8.2079 14.1912 8.21561 14.1976C8.21658 14.1479 8.21619 14.0769 8.21462 13.9709L8.21461 13.9702C8.16705 10.0327 8.15198 8.99013 8.13333 8.7925C8.11921 8.65168 8.08948 8.50605 8.06512 8.43992L8.06511 8.43992L8.06442 8.43799C8.06126 8.42922 8.05829 8.42092 8.05547 8.41306C8.02655 8.33233 8.01416 8.29778 7.99409 8.26268C7.97574 8.23057 7.94531 8.1896 7.86625 8.11711C7.70744 7.97152 7.40933 7.74824 6.77962 7.27661C6.74205 7.24847 6.70329 7.21944 6.66332 7.18949L6.66275 7.18907C6.30849 6.92213 5.98186 6.6784 5.74122 6.50065Z" fill="black" stroke="black" stroke-width="0.5"/>
<path d="M15.2253 12.7785C15.2251 12.7708 15.2249 12.761 15.2248 12.7487C15.2244 12.7088 15.2247 12.6514 15.2255 12.5779C15.2273 12.4313 15.2315 12.2261 15.2375 11.981C15.2496 11.4911 15.2688 10.8449 15.2902 10.1959C15.3116 9.54685 15.335 8.89573 15.3555 8.39605C15.3657 8.1461 15.3752 7.93471 15.3832 7.78066C15.3872 7.7035 15.3909 7.64174 15.394 7.59712C15.3958 7.57082 15.3972 7.55504 15.398 7.54688C15.3984 7.54158 15.3986 7.5395 15.3985 7.53984M15.2253 12.7785L15.3977 7.5433C15.3981 7.54129 15.3983 7.54007 15.3985 7.53984M15.2253 12.7785C15.2464 12.8414 15.2719 12.8715 15.2903 12.8862C15.308 12.9004 15.337 12.9147 15.3923 12.9153C15.3943 12.9149 15.4071 12.9132 15.437 12.9077C15.4749 12.9007 15.5272 12.8902 15.5929 12.8763C15.7238 12.8488 15.9024 12.8092 16.1134 12.7612C16.535 12.6653 17.0822 12.5368 17.6288 12.406C18.1754 12.2751 18.7204 12.1421 19.1377 12.0372C19.3465 11.9847 19.5223 11.9395 19.6501 11.9052C19.7141 11.888 19.7647 11.8739 19.8008 11.8633L15.2253 12.7785ZM15.3985 7.53984C15.4104 7.48902 15.4425 7.41776 15.4939 7.34392C15.5464 7.26834 15.6064 7.20838 15.6565 7.17499C15.6717 7.16488 15.6838 7.15592 15.6932 7.14875C15.6997 7.14376 15.7025 7.14161 15.7043 7.1402L15.3985 7.53984ZM19.833 11.8549L19.8315 11.8557C19.832 11.8554 19.8326 11.8552 19.833 11.8549C19.8383 11.8523 19.8416 11.8509 19.8415 11.8508C19.8415 11.8507 19.8407 11.8509 19.839 11.8515M19.833 11.8549L20.4361 6.36345C20.4677 6.39884 20.498 6.4626 20.4993 6.55933C20.4992 6.56043 20.4991 6.56478 20.4986 6.57405L20.4959 6.6217C20.4935 6.66197 20.4898 6.71734 20.4851 6.78638C20.4756 6.92435 20.4619 7.1151 20.445 7.34499C20.4113 7.80461 20.3651 8.41947 20.3152 9.07887C20.3108 9.13489 20.3066 9.18966 20.3024 9.24322C20.207 10.4741 20.1611 11.0659 20.1159 11.3792C20.0922 11.543 20.072 11.6038 20.0581 11.6326C20.0477 11.6543 20.0408 11.662 19.9986 11.7091C19.9919 11.7166 19.9843 11.725 19.9757 11.7347L19.9753 11.7351C19.956 11.7569 19.9267 11.7846 19.8953 11.8103C19.88 11.8228 19.8658 11.8336 19.8537 11.8419C19.8478 11.846 19.8429 11.8491 19.839 11.8515M19.833 11.8549C19.833 11.8549 19.8335 11.8547 19.8345 11.8541M19.833 11.8549L19.8345 11.8541M19.839 11.8515C19.839 11.8515 19.839 11.8515 19.8389 11.8515M19.839 11.8515L19.8389 11.8515M17.7286 6.76071C17.9471 6.72181 18.1892 6.67875 18.4572 6.63099L18.4134 6.38487C19.4027 6.20998 20.2546 6.06508 20.3046 6.06258C20.5619 6.05509 20.7468 6.26245 20.7493 6.55975C20.7493 6.6372 20.6644 7.77893 20.5644 9.09804C20.3873 11.3818 20.3706 11.6397 20.2402 11.8113L17.7286 6.76071ZM17.7286 6.76071C16.7043 6.94297 16.1947 7.03365 15.93 7.08684M17.7286 6.76071L15.93 7.08684M15.93 7.08684C15.7753 7.11792 15.7233 7.13283 15.7051 7.13957L15.93 7.08684ZM19.8345 11.8541L19.8389 11.8515M19.8345 11.8541L19.8389 11.8515" stroke="black" stroke-width="0.5"/>
<path d="M9.07238 8.31764C9.07432 8.31704 9.08216 8.31447 9.09872 8.31004C9.12424 8.30321 9.16112 8.29436 9.21192 8.28316C9.31324 8.26084 9.46133 8.23108 9.66729 8.19185C10.0787 8.11349 10.7131 7.99882 11.6487 7.83268C12.339 7.71035 12.9835 7.59867 13.4661 7.51731C13.7075 7.47661 13.9078 7.44359 14.0529 7.42063C14.1255 7.40914 14.1835 7.4003 14.2255 7.39431C14.2528 7.39043 14.2686 7.38846 14.2763 7.38751C14.2801 7.38704 14.2819 7.38682 14.2821 7.38673C14.3549 7.38613 14.3914 7.39378 14.4133 7.40188C14.4325 7.40898 14.4554 7.42179 14.4915 7.45872L9.07238 8.31764ZM9.07238 8.31764C8.96055 8.37 8.84666 8.48369 8.77607 8.63441L8.77608 8.63442L8.77526 8.63612L8.72037 8.75105L8.7247 9.12985C8.7247 9.12989 8.7247 9.12994 8.72471 9.12999C8.73722 10.1311 8.80714 13.8286 8.81691 14.0486L8.81693 14.0488C8.82275 14.1827 8.83797 14.2489 8.85497 14.2878C8.86799 14.3176 8.88736 14.3444 8.94093 14.3824C8.99327 14.419 8.99407 14.4175 8.99427 14.4172C8.99429 14.4171 8.9943 14.4171 8.99434 14.4171C9.00345 14.4191 9.04244 14.4246 9.16973 14.4052C9.42295 14.3667 9.89774 14.2531 10.8971 14.014C11.3936 13.8939 11.9224 13.7673 12.3729 13.6593C12.8155 13.5533 13.1825 13.4654 13.3694 13.4196L13.3694 13.4196L13.3709 13.4192C13.5574 13.3748 13.7367 13.3292 13.8748 13.2918C13.944 13.2731 14.0016 13.2568 14.0441 13.2439C14.0835 13.232 14.098 13.2265 14.0981 13.2268C14.0981 13.2269 14.0967 13.2277 14.0941 13.229L14.0958 13.2281C14.1222 13.2152 14.1756 13.1759 14.2355 13.1138C14.2945 13.0526 14.3363 12.9939 14.3529 12.9594L14.5781 13.0678L9.07238 8.31764Z" fill="black" stroke="black" stroke-width="0.5"/>
<path d="M1.28197 8.837C1.06958 8.6445 0.860154 8.4562 0.697644 8.31195C0.709384 8.56963 0.741139 9.0094 0.79944 9.78365C0.861821 10.6021 0.929264 11.5088 0.949399 11.8006C0.994219 12.388 1.01519 12.4946 1.09183 12.7011L1.09183 12.7011L1.0924 12.7026C1.10505 12.7374 1.11202 12.7534 1.1249 12.7746C1.14018 12.7996 1.16756 12.8376 1.22664 12.9069C1.3461 13.047 1.5653 13.281 1.99872 13.7408L1.99913 13.7412C2.24448 14.0028 2.47334 14.2428 2.64425 14.419C2.64802 14.4229 2.65177 14.4268 2.65549 14.4306C2.63876 14.0283 2.58673 13.1298 2.53071 12.242C2.49686 11.7054 2.46185 11.1774 2.43299 10.7739C2.41855 10.5721 2.40571 10.4022 2.39534 10.2782C2.39015 10.2161 2.38567 10.1665 2.382 10.1307C2.37865 10.0981 2.37683 10.0863 2.37704 10.0862C2.37711 10.0862 2.37744 10.0877 2.37806 10.0903L2.37738 10.0874C2.36124 10.0157 2.33197 9.92751 2.29877 9.84877C2.28237 9.80986 2.26626 9.77626 2.25204 9.75033C2.24004 9.72844 2.23261 9.71798 2.23071 9.7153C2.23011 9.71445 2.23005 9.71438 2.23057 9.71496L2.22974 9.71402C2.2298 9.7141 2.22762 9.71169 2.22186 9.70581L2.2005 9.68452C2.18265 9.667 2.1591 9.64436 2.13032 9.61705C2.07286 9.56253 1.99672 9.49146 1.908 9.40939C1.73068 9.24536 1.505 9.03914 1.28197 8.837Z" stroke="black" stroke-width="0.5"/>
<path d="M3.09839 11.6341L3.09843 11.6347C3.1231 12.0713 3.16221 12.7273 3.19493 13.276C3.20524 13.4489 3.21492 13.6112 3.2233 13.7526L3.22331 13.7526C3.29069 14.8906 3.31224 14.9989 3.41305 15.1989C3.41542 15.2021 3.41938 15.2073 3.42545 15.2148C3.44112 15.2344 3.46397 15.2618 3.49395 15.2966C3.55363 15.366 3.6366 15.4595 3.7359 15.5696C3.93422 15.7894 4.19403 16.0714 4.45467 16.3506C4.71533 16.6298 4.97589 16.9052 5.17571 17.1119C5.21 17.1474 5.24237 17.1807 5.27255 17.2116C5.27146 16.9047 5.25123 16.3557 5.21226 15.3586L5.21225 15.3583C5.16221 14.0398 5.13549 13.3595 5.11139 12.9784C5.08769 12.6038 5.06772 12.5421 5.03826 12.4546C5.00834 12.3693 4.96934 12.2756 4.9481 12.2326C4.9461 12.2305 4.94375 12.2279 4.94103 12.2251C4.92495 12.208 4.90129 12.1839 4.87013 12.153C4.80813 12.0914 4.72164 12.0079 4.61808 11.9093C4.41125 11.7124 4.13998 11.4589 3.86866 11.2082C3.59734 10.9574 3.32685 10.7103 3.12162 10.5261C3.09301 10.5005 3.06575 10.4761 3.04001 10.4532C3.04319 10.6717 3.06279 11.0299 3.09839 11.6341ZM4.95638 12.2418C4.95739 12.2431 4.958 12.2438 4.95806 12.2439C4.95813 12.2439 4.95762 12.2433 4.95638 12.2418ZM2.97481 13.7673L2.97481 13.7673L2.97481 13.7673Z" stroke="black" stroke-width="0.5"/>
<path d="M23.094 11.8868L23.0944 11.8867C23.61 11.7606 24.0847 11.6458 24.4348 11.5626C24.6099 11.5209 24.7532 11.4873 24.8546 11.4642C24.9055 11.4526 24.9448 11.4439 24.972 11.4381C24.9735 11.4378 24.9749 11.4375 24.9762 11.4372C24.9814 11.4395 24.9877 11.4427 24.9947 11.4471C25.0056 11.4539 25.0153 11.4617 25.0227 11.469C25.0277 11.4739 25.0304 11.4775 25.0316 11.4791C25.0319 11.4799 25.0324 11.4812 25.033 11.4829C25.0349 11.4885 25.0371 11.4964 25.0392 11.5064C25.0436 11.527 25.046 11.5496 25.046 11.5689C25.046 11.5664 25.0459 11.5671 25.0455 11.5726C25.045 11.579 25.044 11.5922 25.0419 11.6146C25.0387 11.6495 25.0339 11.6979 25.0276 11.7585C25.0151 11.8797 24.9969 12.0472 24.9744 12.2492C24.9295 12.653 24.8678 13.1928 24.8004 13.7708C24.6891 14.7098 24.6257 15.2358 24.5833 15.5423C24.5395 15.8598 24.5209 15.9112 24.5117 15.9315C24.4853 15.9886 24.444 16.0514 24.3969 16.1058C24.3532 16.1563 24.315 16.1874 24.2918 16.2017C24.2872 16.2033 24.2782 16.2065 24.2635 16.2115C24.2347 16.2211 24.1941 16.2344 24.1422 16.2509C24.0387 16.2838 23.8942 16.3288 23.7188 16.3828C23.3683 16.4906 22.8967 16.6334 22.3886 16.7857L23.094 11.8868ZM23.094 11.8868C22.5795 12.0116 22.0989 12.129 21.7392 12.2176C21.5593 12.2619 21.4099 12.299 21.3017 12.3261C21.2476 12.3397 21.2042 12.3508 21.1727 12.359C21.1374 12.3681 21.1246 12.3717 21.125 12.3716L21.1251 12.3717L21.12 12.3732C21.1007 12.3789 21.0368 12.4155 20.958 12.4952C20.8829 12.571 20.8313 12.6487 20.8131 12.6962M23.094 11.8868L20.8131 12.6962M20.8131 12.6962C20.8049 12.7184 20.7879 12.7934 20.7543 13.1445C20.7221 13.4815 20.676 14.045 20.5985 15.0114C20.5499 15.628 20.5068 16.198 20.4772 16.6196C20.4624 16.8305 20.451 17.0034 20.444 17.1262C20.4404 17.1877 20.4381 17.2354 20.4369 17.2683C20.4367 17.2728 20.4366 17.2768 20.4365 17.2805C20.4372 17.2819 20.438 17.2833 20.4389 17.2849C20.4473 17.2993 20.4571 17.3115 20.4636 17.3181C20.4671 17.3216 20.4701 17.3246 20.4728 17.3271C20.4757 17.3272 20.4789 17.3272 20.4826 17.3273C20.4856 17.3268 20.491 17.3259 20.4992 17.3243C20.5201 17.3202 20.5503 17.3135 20.5916 17.3034C20.6739 17.2832 20.7915 17.2519 20.9496 17.2076C21.2652 17.1193 21.7344 16.9818 22.3886 16.7857L20.8131 12.6962ZM20.4362 17.3094C20.4362 17.3093 20.4362 17.3077 20.436 17.3049L20.4362 17.3094ZM25.0069 11.4313C25.0069 11.4312 25.0056 11.4314 25.0026 11.432C25.0053 11.4316 25.0069 11.4313 25.0069 11.4313Z" stroke="black" stroke-width="0.5"/>
<path d="M15.4793 13.7484C15.4863 13.7463 15.4966 13.7433 15.5107 13.7393C15.5427 13.7303 15.5885 13.7179 15.6475 13.7024C15.7652 13.6714 15.9309 13.629 16.1328 13.5782C16.5363 13.4766 17.0821 13.3419 17.6726 13.1983C18.2627 13.0548 18.8114 12.9245 19.2194 12.8301C19.4235 12.7829 19.5917 12.7449 19.7121 12.7187C19.7724 12.7056 19.8195 12.6957 19.8526 12.6892C19.8673 12.6863 19.8781 12.6844 19.8854 12.6831C19.9296 12.6837 19.9551 12.6964 19.9696 12.7079C19.9832 12.7187 19.9997 12.7386 20.0102 12.7759C20.0101 12.783 20.0098 12.7922 20.0094 12.8038C20.0082 12.8397 20.0057 12.8911 20.002 12.9566C19.9947 13.0874 19.9829 13.2693 19.9679 13.486C19.9379 13.9193 19.8953 14.4884 19.8507 15.0582C19.8061 15.628 19.7595 16.1977 19.7214 16.6322C19.7023 16.8495 19.6855 17.0322 19.6721 17.1638C19.6655 17.2298 19.6598 17.2816 19.6553 17.318C19.6533 17.3334 19.6518 17.3448 19.6506 17.3527C19.5936 17.5071 19.45 17.65 19.3069 17.7021L19.3012 17.7042L19.3012 17.7042C19.3007 17.7044 19.2995 17.7047 19.2976 17.7053C19.2917 17.7073 19.2785 17.7116 19.2549 17.7191C19.2221 17.7294 19.1767 17.7436 19.1196 17.7611C19.0056 17.7962 18.8471 17.8444 18.6555 17.9023C18.2724 18.018 17.758 18.1722 17.2048 18.337L17.2047 18.3371C16.4602 18.5594 15.9517 18.7088 15.6176 18.8025C15.4503 18.8494 15.3291 18.8817 15.2447 18.9021C15.1856 18.9164 15.1545 18.9222 15.1418 18.9246C15.1338 18.9261 15.1332 18.9262 15.1377 18.9262C15.078 18.9262 15.0473 18.909 15.0189 18.859C15.0187 18.8573 15.0185 18.8552 15.0182 18.8527C15.0146 18.8179 15.0124 18.7479 15.0145 18.594C15.0182 18.3115 15.0352 17.7879 15.068 16.7787L15.4793 13.7484ZM15.4793 13.7484C15.4274 13.7752 15.3546 13.8371 15.2867 13.9267C15.2179 14.0176 15.1773 14.1063 15.1656 14.1644C15.1655 14.1669 15.1646 14.1793 15.1631 14.2079C15.1612 14.2436 15.1588 14.2942 15.1559 14.3583C15.1503 14.4864 15.143 14.6666 15.1345 14.8856C15.1177 15.3235 15.0965 15.9157 15.0753 16.5561L15.4793 13.7484ZM19.6487 17.3638C19.6487 17.3639 19.6489 17.363 19.6492 17.3611L19.6487 17.3638ZM20.0101 12.7586C20.0101 12.7587 20.0101 12.76 20.0103 12.7624L20.0101 12.7586ZM20.0143 12.7931L20.0142 12.7927L20.0143 12.7931ZM15.4725 13.7506C15.4706 13.7512 15.4699 13.7515 15.4699 13.7515C15.47 13.7514 15.4709 13.7511 15.4725 13.7506Z" stroke="black" stroke-width="0.5"/>
<path d="M7.22045 19.2872C7.80307 19.9053 8.12222 20.2423 8.30498 20.4259C8.30585 20.3338 8.30561 20.2069 8.30491 20.0292H8.30491V20.0282C8.30491 19.666 8.28996 18.5089 8.26998 17.4572L8.26997 17.4566C8.26919 17.4099 8.26842 17.3643 8.26768 17.3198C8.25168 16.3626 8.24394 15.8989 8.22263 15.6323C8.21177 15.4964 8.19822 15.4253 8.18261 15.3728C8.16758 15.3222 8.14904 15.2817 8.11297 15.2029C8.10969 15.1957 8.10627 15.1883 8.10269 15.1804L8.10266 15.1804C8.08154 15.1341 8.07089 15.1131 8.04893 15.0831C8.02335 15.0481 7.9789 14.9969 7.88546 14.9039C7.69815 14.7175 7.34936 14.3976 6.65226 13.7594L6.65219 13.7593C6.20462 13.3493 5.92991 13.0996 5.76032 12.951C5.76033 12.9514 5.76033 12.9517 5.76034 12.952C5.76265 13.072 5.76682 13.2397 5.7724 13.4407C5.78355 13.8427 5.80024 14.376 5.81865 14.9238C5.85561 16.023 5.89916 17.1694 5.91869 17.4367L5.91871 17.4371C5.92556 17.5329 5.94643 17.6768 5.96394 17.7449L5.96403 17.7452C5.98394 17.8232 5.99886 17.8705 6.02355 17.9206C6.04889 17.972 6.08959 18.0362 6.16987 18.1368C6.33449 18.3431 6.63321 18.6635 7.22045 19.2872ZM5.75866 12.7678C5.75866 12.7677 5.75861 12.7685 5.75856 12.7701L5.75866 12.7678ZM8.48711 20.5956C8.48711 20.5956 8.487 20.5955 8.4868 20.5954L8.48711 20.5956Z" stroke="black" stroke-width="0.5"/>
<path d="M1.1008 13.7505C1.11066 13.7607 1.1208 13.7712 1.13121 13.782C1.36768 14.0271 1.73847 14.4222 2.29818 15.0243L2.2985 15.0247C2.52644 15.269 2.61267 15.3794 2.66504 15.5256C2.72238 15.6856 2.7445 15.9029 2.7739 16.381C2.7739 16.381 2.7739 16.381 2.7739 16.381L1.1008 13.7505ZM1.1008 13.7505C1.12419 14.1253 1.17522 14.8238 1.22968 15.5265C1.2665 16.0016 1.30439 16.4726 1.33524 16.8348C1.35067 17.016 1.36429 17.1694 1.37509 17.2823C1.38051 17.3389 1.38513 17.3844 1.38887 17.4178C1.39155 17.4417 1.39329 17.4548 1.39404 17.4605C1.39444 17.4635 1.39456 17.4643 1.39437 17.4635C1.42337 17.598 1.44585 17.6712 1.55453 17.8298C1.6761 18.0072 1.89268 18.271 2.31602 18.7788L1.1008 13.7505ZM2.31605 18.7788C2.60978 19.131 2.81284 19.3738 2.95515 19.5404L2.31605 18.7788Z" fill="black" stroke="black" stroke-width="0.5"/>
<path d="M8.6122 15.7236C8.63218 15.4712 8.81706 15.1989 9.0519 15.0715L9.78141 20.8151C9.48661 20.9026 9.1993 20.975 9.14434 20.975C9.01193 20.975 8.83455 20.8851 8.76459 20.7802C8.73461 20.7352 8.70463 20.6403 8.69714 20.5678C8.67715 20.3804 8.5997 15.8835 8.6122 15.7236ZM8.6122 15.7236L8.86144 15.743C8.86144 15.743 8.86144 15.743 8.86144 15.743C8.86143 15.7431 8.86142 15.7432 8.86141 15.7433L8.6122 15.7236ZM9.17282 15.2903L9.17112 15.2912C9.00474 15.3815 8.87437 15.5817 8.86144 15.743C8.86147 15.7427 8.86145 15.7435 8.86141 15.7456C8.86129 15.7518 8.86096 15.7692 8.86087 15.8029C8.86076 15.8435 8.86095 15.8992 8.86143 15.9682C8.86239 16.1061 8.86446 16.295 8.86737 16.5183C8.87318 16.9649 8.8823 17.5474 8.89245 18.131C8.9026 18.7146 8.91375 19.2989 8.92362 19.7489C8.92855 19.9739 8.93315 20.1649 8.93714 20.3053C8.93913 20.3756 8.94095 20.4326 8.94257 20.4747C8.94338 20.4958 8.94411 20.5124 8.94476 20.5248C8.94526 20.5344 8.94561 20.5393 8.94572 20.541C8.94578 20.5417 8.94578 20.5418 8.94573 20.5413L8.94581 20.5421C8.94747 20.5581 8.95259 20.583 8.96074 20.6087C8.96461 20.6209 8.96843 20.631 8.97156 20.6381C8.97252 20.6403 8.97328 20.642 8.97382 20.6431C8.97458 20.644 8.97573 20.6453 8.97734 20.647C8.98082 20.6507 8.98579 20.6554 8.99248 20.6609C9.0061 20.6719 9.02399 20.6837 9.04484 20.6944C9.08461 20.7147 9.11876 20.7229 9.13729 20.7247C9.14195 20.7239 9.15361 20.722 9.17476 20.7176C9.20936 20.7104 9.25599 20.6995 9.31199 20.6854C9.42356 20.6574 9.56559 20.6184 9.71011 20.5755C11.2502 20.1159 12.2915 19.8037 12.9573 19.6019C13.2903 19.5009 13.5287 19.4277 13.6884 19.3776C13.7684 19.3524 13.8276 19.3334 13.8686 19.3197C13.8994 19.3094 13.9138 19.3041 13.9183 19.3026C13.9686 19.274 14.04 19.2098 14.1059 19.1208C14.1762 19.0259 14.212 18.941 14.2185 18.8973C14.2184 18.8976 14.2184 18.8977 14.2184 18.8975C14.2185 18.8968 14.219 18.8921 14.2199 18.8814C14.2209 18.8688 14.222 18.8518 14.2233 18.8302C14.2259 18.7872 14.2288 18.7292 14.2321 18.6578C14.2385 18.5153 14.2459 18.3227 14.2539 18.0966C14.2698 17.6446 14.2877 17.0609 14.3039 16.4811C14.3202 15.9012 14.3347 15.3257 14.3437 14.8899C14.3482 14.6719 14.3514 14.4895 14.3527 14.3593C14.3533 14.294 14.3535 14.243 14.3532 14.2076C14.3532 14.2009 14.3531 14.195 14.353 14.1898C14.3405 14.1639 14.3157 14.1315 14.2774 14.103C14.2355 14.072 14.1968 14.0597 14.172 14.0575C14.1645 14.059 14.1546 14.0611 14.1423 14.0638C14.1071 14.0715 14.0561 14.0831 13.9904 14.0982C13.8595 14.1285 13.6734 14.1723 13.4455 14.2264C12.9901 14.3346 12.3698 14.4838 11.6942 14.6474C10.7698 14.8722 10.1493 15.0255 9.74833 15.129C9.54762 15.1808 9.40405 15.2196 9.30572 15.2484C9.22645 15.2715 9.18963 15.2846 9.17723 15.2891C9.17237 15.2908 9.17126 15.2912 9.17282 15.2903Z" stroke="black" stroke-width="0.5"/>
<path d="M3.36539 16.1649C3.42394 16.2256 3.4948 16.3003 3.58081 16.3918C3.8479 16.6764 4.31486 17.1758 4.61944 17.5028L4.61974 17.5032L4.63022 17.5144C5.03046 17.9426 5.17467 18.097 5.25213 18.2998C5.29035 18.3999 5.31475 18.5211 5.33196 18.7105C5.34778 18.8846 5.35649 19.1016 5.3684 19.398L3.36539 16.1649ZM3.36539 16.1649C3.36998 16.3127 3.38073 16.5152 3.39803 16.7949L3.39805 16.7953C3.40034 16.8333 3.40305 16.8783 3.40613 16.9293C3.42988 17.323 3.4751 18.0724 3.51052 18.7123C3.58984 20.0632 3.60625 20.1563 3.70458 20.3902C3.70695 20.3937 3.71071 20.3992 3.71628 20.4069C3.73147 20.4282 3.75358 20.4578 3.78249 20.4956C3.84005 20.5708 3.92025 20.6725 4.01628 20.7925C4.20812 21.0322 4.46003 21.3409 4.71339 21.6474C4.96678 21.9539 5.22081 22.2573 5.41689 22.4866C5.4416 22.5155 5.46534 22.5432 5.48798 22.5695C5.47942 22.1938 5.45121 21.4831 5.39692 20.1156C5.38916 19.9203 5.38088 19.7116 5.37204 19.4886L3.36539 16.1649ZM5.52187 22.8471C5.53256 22.8397 5.55642 22.8255 5.59155 22.8185C5.63157 22.8105 5.66568 22.8158 5.68754 22.8223C5.69272 22.8239 5.69717 22.8255 5.70073 22.8269C5.70409 22.8282 5.70665 22.8294 5.70825 22.8301C5.70839 22.8302 5.70852 22.8302 5.70864 22.8303C5.72329 22.8386 5.73437 22.847 5.73999 22.8516C5.73706 22.9727 5.7264 22.9951 5.70983 23.0115C5.70511 23.0161 5.69992 23.0203 5.69429 23.0261C5.64932 23.0711 5.63183 23.0736 5.58686 23.0486L5.52187 22.8471ZM5.52187 22.8471C5.5209 22.8482 5.51991 22.8495 5.51891 22.8507L5.52187 22.8471Z" stroke="black" stroke-width="0.5"/>
<path d="M20.341 18.4443C20.3401 18.4509 20.339 18.4601 20.3376 18.4722C20.3342 18.5025 20.3296 18.5459 20.3241 18.6017C20.3132 18.7129 20.2987 18.8696 20.2819 19.0605C20.2482 19.4421 20.2052 19.9584 20.1616 20.5173L20.1615 20.5178C20.1581 20.5611 20.1547 20.6034 20.1514 20.645C20.0703 21.6591 20.0307 22.1545 20.0255 22.4107C20.0241 22.477 20.0255 22.519 20.0273 22.5445C20.0316 22.5439 20.0364 22.5431 20.0418 22.5422C20.0736 22.5366 20.1181 22.5263 20.1811 22.5087C20.4392 22.4367 20.9203 22.2677 21.8877 21.926L21.8878 21.926C22.3831 21.7513 22.8406 21.5874 23.179 21.4638C23.3483 21.402 23.487 21.3505 23.5855 21.313C23.6349 21.2941 23.6729 21.2793 23.6991 21.2686C23.7052 21.2662 23.7103 21.264 23.7145 21.2623C23.7477 21.2358 23.7892 21.195 23.8296 21.1464C23.872 21.0955 23.9023 21.0491 23.9178 21.0181C23.9194 21.0113 23.9214 21.0015 23.924 20.9883C23.9304 20.9552 23.9384 20.9086 23.9478 20.849C23.9665 20.7303 23.9898 20.5675 24.0159 20.3744C24.068 19.9886 24.1307 19.4869 24.1901 18.9854C24.2495 18.4839 24.3054 17.9839 24.3441 17.6017C24.3635 17.4103 24.3785 17.2499 24.3873 17.1341C24.3918 17.0758 24.3946 17.0311 24.3957 17.0003C24.3958 16.9984 24.3959 16.9966 24.3959 16.9949C24.3937 16.9921 24.3912 16.9896 24.3883 16.9874C24.3844 16.9845 24.3806 16.9827 24.3772 16.9816C24.3734 16.9824 24.3689 16.9835 24.3636 16.9847C24.3367 16.991 24.2981 17.0008 24.2476 17.0141C24.1472 17.0408 24.0067 17.0799 23.8338 17.1294C23.4884 17.2283 23.0181 17.3672 22.4905 17.5268C21.9366 17.6952 21.4671 17.841 21.1277 17.9494C20.9578 18.0037 20.8215 18.0484 20.724 18.0817C20.6751 18.0984 20.6374 18.1117 20.6106 18.1218C20.5949 18.1276 20.5864 18.1311 20.583 18.1325C20.4826 18.1948 20.3786 18.3282 20.341 18.4443ZM20.3426 18.4333C20.3426 18.4332 20.3425 18.434 20.3422 18.4358L20.3426 18.4333ZM24.3945 16.9782C24.3946 16.9781 24.3937 16.9782 24.3916 16.9786L24.3945 16.9782ZM24.4036 17.0109L24.403 17.0089L24.4036 17.0109ZM23.9154 21.0277C23.9154 21.0278 23.9156 21.0272 23.9159 21.026L23.9154 21.0277ZM23.7306 21.2551C23.7305 21.2552 23.7294 21.2557 23.7275 21.2567C23.7297 21.2556 23.7307 21.2551 23.7306 21.2551ZM20.019 22.5565L19.8673 22.7489L20.019 22.5565Z" fill="black" stroke="black" stroke-width="0.5"/>
<path d="M14.9931 20.0434L14.9931 20.0433C15.0044 20.012 15.046 19.9425 15.1121 19.864C15.1713 19.7936 15.2227 19.7486 15.2478 19.7314C15.2547 19.729 15.2637 19.7259 15.2754 19.722C15.3064 19.7116 15.3509 19.6971 15.4078 19.6789C15.5214 19.6425 15.6814 19.5923 15.8762 19.5318C16.2656 19.4108 16.7923 19.2492 17.3617 19.0756C18.0056 18.8797 18.5333 18.7227 18.9084 18.6145C19.096 18.5603 19.2444 18.5187 19.3496 18.4906C19.4024 18.4765 19.4427 18.4662 19.471 18.4595C19.481 18.4572 19.488 18.4557 19.4928 18.4547C19.5327 18.4572 19.5529 18.4744 19.5644 18.4953C19.5645 18.4966 19.5646 18.4982 19.5648 18.5001C19.567 18.5303 19.5671 18.5904 19.5606 18.7192C19.5477 18.9726 19.5118 19.4447 19.4405 20.3661L19.4405 20.3663C19.4335 20.4564 19.4269 20.5429 19.4206 20.6259C19.3451 21.6111 19.3071 22.1066 19.2793 22.3738C19.264 22.5206 19.2531 22.5839 19.2446 22.6172C19.2393 22.6375 19.2374 22.6413 19.2199 22.6751C19.2184 22.6779 19.2169 22.681 19.2152 22.6842L19.2146 22.6855L19.2146 22.6855C19.1909 22.732 19.1506 22.7887 19.1025 22.8403C19.0526 22.8938 19.0092 22.9258 18.9858 22.9375L18.9839 22.9384C18.9849 22.9379 18.9854 22.9376 18.9854 22.9376C18.9853 22.9374 18.9743 22.9421 18.9432 22.954C18.9096 22.9669 18.8628 22.9844 18.804 23.006C18.6867 23.0492 18.525 23.1077 18.3333 23.1764C17.95 23.3139 17.4488 23.4915 16.9479 23.6679C16.4469 23.8442 15.9466 24.0191 15.5652 24.1509C15.3744 24.2169 15.2139 24.2718 15.098 24.3108C15.04 24.3303 14.994 24.3456 14.9613 24.3561C14.9455 24.3611 14.9339 24.3647 14.9259 24.3671C14.8936 24.3701 14.8588 24.3576 14.8398 24.3428C14.8393 24.3398 14.8388 24.3364 14.8383 24.3323L14.9931 20.0434ZM14.9931 20.0434L14.9915 20.0476M14.9931 20.0434L14.9915 20.0476M14.9915 20.0476C14.9855 20.0633 14.9719 20.0995 14.9555 20.3985M14.9915 20.0476L14.9555 20.3985M14.9555 20.3985C14.9398 20.6863 14.9217 21.1884 14.8905 22.1053L14.9555 20.3985ZM15.235 19.7362C15.235 19.7361 15.2357 19.7359 15.2368 19.7354L15.235 19.7362ZM14.8905 22.1053C14.8718 22.6581 14.8562 23.179 14.8459 23.573C14.8407 23.77 14.8369 23.9349 14.8347 24.0561C14.8336 24.1168 14.8329 24.1659 14.8326 24.2024L14.8326 24.2461C14.8326 24.256 14.8328 24.2605 14.8328 24.2616L14.8905 22.1053ZM14.9343 24.366C14.934 24.366 14.9337 24.3661 14.9334 24.3661L14.9343 24.366Z" stroke="black" stroke-width="0.5"/>
<path d="M5.97564 18.9517C6.04182 19.0209 6.12227 19.1059 6.21297 19.2023C6.44039 19.444 6.73052 19.7557 7.01798 20.0667C7.30545 20.3777 7.58978 20.6875 7.80562 20.9254C7.91362 21.0445 8.00394 21.1449 8.06876 21.2183C8.10128 21.2551 8.12656 21.2842 8.14416 21.305C8.15306 21.3155 8.15821 21.3219 8.16072 21.325C8.18447 21.3672 8.2308 21.4705 8.26068 21.558L8.26107 21.5592C8.29113 21.6458 8.31519 21.7542 8.33279 22.1303C8.35035 22.5055 8.36094 23.1226 8.3747 24.2133C8.3747 24.2134 8.3747 24.2134 8.3747 24.2135L5.97564 18.9517ZM5.97564 18.9517C5.97616 19.0492 5.97974 19.177 5.98643 19.3463L5.98643 19.3464C5.9973 19.6261 6.00734 19.8854 6.01664 20.1258C6.07588 21.656 6.1055 22.4213 6.13225 22.8332C6.14786 23.0737 6.1617 23.1774 6.17557 23.2377C6.18459 23.2768 6.19167 23.2935 6.20868 23.3335C6.21624 23.3513 6.22577 23.3738 6.23831 23.4049L6.00644 23.4983C6.01549 23.5205 6.02244 23.5387 6.03017 23.5565C6.08435 23.6811 6.1772 23.789 7.30307 25.1422M5.97564 18.9517L6.23788 23.4038C6.24252 23.4152 6.24625 23.4244 6.24937 23.4322C6.26101 23.461 6.26406 23.4686 6.27425 23.486C6.28936 23.5117 6.31931 23.5552 6.39569 23.652C6.53197 23.8247 6.7903 24.1352 7.30956 24.7592C7.36802 24.8294 7.4298 24.9037 7.49507 24.9821M7.30307 25.1422L7.49495 24.982C7.49499 24.982 7.49503 24.9821 7.49507 24.9821M7.30307 25.1422C8.07505 26.0666 8.42981 26.4763 8.47478 26.4863L7.49507 24.9821M7.30307 25.1422L7.49525 24.9824C7.49519 24.9823 7.49513 24.9822 7.49507 24.9821M5.78857 18.764C5.78857 18.764 5.78923 18.7645 5.79054 18.7652C5.78922 18.7643 5.78856 18.7639 5.78857 18.764Z" fill="black" stroke="black" stroke-width="0.5"/>
<path d="M14.1208 22.2913L14.1208 22.2913L14.0549 24.395L14.0155 24.4819C14.0155 24.4819 14.0155 24.482 14.0155 24.482C13.9641 24.5954 13.8626 24.7103 13.7729 24.7666C13.7691 24.7681 13.7574 24.7731 13.733 24.7826C13.6981 24.7963 13.649 24.8151 13.5865 24.8385C13.4618 24.8852 13.2876 24.9492 13.0762 25.0259C12.6536 25.1792 12.0848 25.3826 11.472 25.5984L14.1208 22.2913ZM14.1208 22.2913C14.1546 21.2174 14.1713 20.6831 14.1737 20.4051C14.175 20.2633 14.1723 20.2015 14.1688 20.1723C14.1687 20.1719 14.1687 20.1714 14.1686 20.171C14.1383 20.1193 14.1054 20.1023 14.0474 20.1033L14.0474 20.1033M14.1208 22.2913L14.0474 20.1033M14.0474 20.1033H14.0434M14.0474 20.1033H14.0434M14.0434 20.1033C14.0138 20.1033 13.9851 20.1044 13.9636 20.1058C13.958 20.1062 13.9533 20.1066 13.9497 20.1069M14.0434 20.1033L13.9497 20.1069M13.9497 20.1069L13.9136 20.118L13.777 20.1596C13.6598 20.1952 13.4918 20.2461 13.2856 20.3084C12.8733 20.433 12.308 20.6036 11.6896 20.7897C11.0713 20.9758 10.497 21.1494 10.0697 21.2792C9.85605 21.3441 9.6794 21.398 9.55253 21.4371C9.48905 21.4566 9.43838 21.4724 9.40189 21.4838C9.36824 21.4944 9.35223 21.4997 9.34801 21.501C9.34777 21.5011 9.34756 21.5012 9.34739 21.5012C9.31412 21.5148 9.2466 21.5591 9.17054 21.6319C9.09502 21.7042 9.04146 21.7755 9.02059 21.8185C8.99751 21.8685 8.99387 21.8776 8.98953 21.9227C8.98286 21.9919 8.98193 22.1077 8.98193 22.3663C8.98318 22.8557 9.00123 23.8456 9.02184 24.7223C9.03213 25.1603 9.04305 25.5691 9.05277 25.8718C9.05764 26.0233 9.06219 26.1474 9.06618 26.235C9.06767 26.2678 9.06906 26.2947 9.07031 26.3156C9.07336 26.3191 9.07685 26.3228 9.08078 26.3267C9.10057 26.3465 9.12285 26.3629 9.14025 26.3723C9.1406 26.3725 9.14095 26.3726 9.14128 26.3728C9.14154 26.3728 9.14182 26.3728 9.1421 26.3728C9.17389 26.3708 9.24401 26.3579 9.40626 26.3091C9.72389 26.2135 10.3114 26.007 11.472 25.5985L13.9497 20.1069Z" fill="black" stroke="black" stroke-width="0.5"/>
</svg>
