<svg width="26" height="27" viewBox="0 0 26 27" fill="none" xmlns="http://www.w3.org/2000/svg">
<path d="M13.7446 0.61576L13.7444 0.615783C12.9702 0.703703 12.4955 0.757739 12.2005 0.793904C12.393 0.902109 12.6264 1.03147 12.8624 1.16096C13.1427 1.31475 13.4259 1.46825 13.6476 1.58622C13.7585 1.64527 13.8533 1.69498 13.9243 1.73125C13.9838 1.76163 14.0159 1.77691 14.0276 1.78246C14.0296 1.78343 14.031 1.78411 14.0318 1.78451C14.0471 1.78869 14.0836 1.79664 14.1372 1.80456C14.1937 1.81291 14.2563 1.81934 14.3104 1.82142L14.3104 1.82136L14.3158 1.82169C14.3968 1.82657 14.5049 1.82381 14.8161 1.7902C15.1254 1.7568 15.6211 1.6947 16.4701 1.58592L16.4701 1.58592C17.0251 1.51482 17.5255 1.44752 17.8946 1.39524C17.9437 1.38828 17.9905 1.38158 18.0348 1.37519C17.8308 1.27329 17.583 1.15068 17.3334 1.02802C17.0412 0.88439 16.747 0.74098 16.5184 0.630942C16.404 0.575881 16.3066 0.529454 16.2342 0.495622C16.1715 0.466296 16.1377 0.451329 16.1262 0.446233C16.1226 0.44555 16.1166 0.444486 16.1079 0.443148C16.0882 0.440148 16.062 0.436892 16.0308 0.433739C15.9684 0.42744 15.8923 0.422201 15.8194 0.419887L15.8194 0.419899L15.8169 0.419796C15.6021 0.410846 15.2867 0.439376 13.7446 0.61576Z" stroke="black" stroke-width="0.5"/>
<path d="M8.54016 1.19546L8.54054 1.19542C9.11187 1.13055 9.655 1.07194 10.0697 1.02925C10.2771 1.0079 10.452 0.990581 10.582 0.978467C10.6471 0.972404 10.7003 0.967698 10.7406 0.964453C10.7607 0.96283 10.777 0.961616 10.7896 0.960789L10.8048 0.959886L10.8094 0.959678L10.8106 0.959632L10.811 0.959622L10.8111 0.95962L10.8111 0.959619L10.8058 0.709675M8.54016 1.19546L11.206 2.26052C11.7953 2.18436 12.3413 2.1126 12.7464 2.05803C12.8678 2.04167 12.9764 2.02689 13.0695 2.014C12.8729 1.90254 12.6232 1.76338 12.3544 1.61588L12.3537 1.6155C11.7316 1.27157 11.4332 1.10815 11.2378 1.02766C11.1462 0.989963 11.0863 0.974509 11.0321 0.966968C10.9738 0.958851 10.9131 0.958385 10.8088 0.959657L10.8058 0.709675M8.54016 1.19546C7.64228 1.29603 7.09627 1.35847 6.7653 1.4045M8.54016 1.19546L12.4747 1.39671C11.2455 0.71717 11.2155 0.704679 10.8058 0.709675M10.8058 0.709675C10.6884 0.712174 9.65657 0.817103 8.51234 0.947016C7.32123 1.08042 6.73907 1.14781 6.45952 1.1993C6.51363 1.23721 6.58959 1.28849 6.68189 1.34956C6.70851 1.36717 6.73636 1.38552 6.7653 1.4045M6.7653 1.4045C6.94839 1.52462 7.17482 1.67022 7.40487 1.8161C7.67122 1.985 7.94117 2.15349 8.15288 2.28241C8.25891 2.34697 8.3492 2.40092 8.41669 2.43983C8.45058 2.45938 8.47725 2.47428 8.49656 2.48455C8.50304 2.488 8.50779 2.49042 8.51103 2.49205C8.51467 2.49282 8.52034 2.49395 8.52841 2.49535C8.54822 2.49879 8.5746 2.50255 8.60619 2.50626C8.66891 2.51364 8.74509 2.52002 8.81784 2.52351C9.05263 2.53237 9.23803 2.51437 11.206 2.26053L6.7653 1.4045ZM6.43306 1.2043C6.22432 1.24484 6.20405 1.27619 6.21388 1.32426L6.43306 1.2043Z" stroke="black" stroke-width="0.5"/>
<path d="M2.9345 1.81746L2.93432 1.81748C2.30522 1.88863 1.71827 1.95724 1.27953 2.01084C1.06966 2.03648 0.894318 2.0586 0.764729 2.07588C0.804341 2.10632 0.847669 2.13943 0.894635 2.17515C1.1774 2.39017 1.58725 2.69601 2.10022 3.07419L1.95187 3.27542L2.09993 3.07397C2.105 3.0777 2.10997 3.08135 2.11484 3.08493C2.2389 3.17616 2.30078 3.22165 2.37289 3.25276C2.4389 3.28125 2.52693 3.30224 2.70048 3.30336C3.05707 3.30566 3.67526 3.22667 4.97853 3.06014L5.07781 3.04745C5.07785 3.04745 5.07789 3.04744 5.07793 3.04744C6.34914 2.88369 7.03795 2.79462 7.41988 2.74086C7.47639 2.73291 7.52571 2.72579 7.56885 2.71938C7.56816 2.71892 7.56746 2.71847 7.56676 2.71801C7.37123 2.59046 7.11359 2.42633 6.8528 2.26269C6.59201 2.09906 6.32921 1.93663 6.12338 1.81243C6.0203 1.75024 5.93261 1.6983 5.86705 1.66079C5.83413 1.64195 5.80821 1.62757 5.7894 1.61763C5.77902 1.61214 5.77319 1.60929 5.77088 1.60816C5.67489 1.57503 5.59036 1.55339 5.22179 1.57774C4.83701 1.60317 4.17809 1.67594 2.9345 1.81746Z" stroke="black" stroke-width="0.5"/>
<path d="M15.0609 2.36831C15.0655 2.37093 15.0702 2.37357 15.0749 2.37622C15.3185 2.51368 15.6386 2.68968 15.9615 2.86447C16.2844 3.03924 16.6091 3.21217 16.8618 3.34349C16.9884 3.40924 17.0958 3.46397 17.1755 3.50313C17.2155 3.52279 17.247 3.53776 17.2698 3.54801C17.2811 3.55312 17.2879 3.55597 17.2912 3.55733C17.4082 3.58554 17.512 3.59922 17.8331 3.56784C18.1732 3.53459 18.7313 3.4534 19.7623 3.29806L19.7624 3.29804C20.2945 3.21811 20.7878 3.14379 21.1538 3.08853L21.4134 3.04923C21.1709 2.92481 20.8605 2.76913 20.5451 2.61331C20.2058 2.44568 19.8618 2.27845 19.5917 2.15039C19.4564 2.08629 19.3407 2.0325 19.2538 1.99353C19.178 1.95958 19.1383 1.94351 19.1251 1.93822C19.1212 1.93662 19.1197 1.936 19.1203 1.93616L19.1203 1.93617L19.1187 1.93576C19.023 1.91053 18.911 1.89641 18.5599 1.92566C18.2072 1.95506 17.6404 2.02534 16.6466 2.15427C16.1324 2.22166 15.654 2.28591 15.2981 2.33514C15.2112 2.34717 15.1317 2.35828 15.0609 2.36831Z" stroke="black" stroke-width="0.5"/>
<path d="M0.41221 4.79056L0.412216 4.79064C0.50361 6.00255 0.553154 6.63897 0.594925 7.00355C0.635805 7.36035 0.666166 7.42628 0.707929 7.50899C0.712311 7.51741 0.733934 7.55411 0.913912 7.72712C1.0883 7.89475 1.38836 8.17012 1.91763 8.65184C2.0658 8.78654 2.20572 8.91042 2.31952 9.00859C2.31952 9.00853 2.31952 9.00848 2.31952 9.00842C2.31412 8.87117 2.3051 8.68 2.29344 8.45182C2.27015 7.99572 2.23646 7.39474 2.20057 6.78819C2.16468 6.18166 2.12662 5.5702 2.0946 5.09315C2.07858 4.85454 2.0641 4.65015 2.05219 4.49704C2.04623 4.4204 2.04096 4.35737 2.03652 4.30966C2.03429 4.28578 2.03234 4.26644 2.03066 4.25154L2.02852 4.2337L2.0278 4.22849C2.02761 4.22719 2.02752 4.22663 2.02752 4.22667L2.02734 4.22559C2.00775 4.10693 1.97605 3.99846 1.93887 3.91147C1.90014 3.82083 1.8626 3.77013 1.84066 3.74994C1.75611 3.67326 1.31048 3.338 0.861805 3.00934C0.641173 2.84772 0.425733 2.69199 0.263128 2.57698C0.261234 2.57564 0.259346 2.57431 0.257468 2.57298C0.257845 2.57976 0.258236 2.58672 0.258641 2.59386C0.265831 2.72057 0.277164 2.89963 0.29182 3.11821C0.321116 3.55517 0.363534 4.14779 0.41221 4.79056ZM2.32485 9.2179C2.32486 9.21795 2.32488 9.21763 2.32491 9.21692C2.3249 9.21693 2.32488 9.21694 2.32486 9.21696C2.32484 9.21754 2.32484 9.21787 2.32485 9.2179Z" stroke="black" stroke-width="0.5"/>
<path d="M9.90314 3.02914C9.71835 3.05415 9.56231 3.07554 9.44433 3.09205C9.44775 3.0943 9.45119 3.09656 9.45464 3.09883C9.67546 3.24402 9.97073 3.43359 10.2709 3.62348C10.5711 3.81335 10.875 4.00282 11.113 4.1478C11.2322 4.22039 11.3338 4.28117 11.4097 4.32508C11.4478 4.34712 11.478 4.36408 11.5001 4.37588C11.512 4.38225 11.519 4.38572 11.5221 4.38727C11.5703 4.40178 11.6661 4.41807 11.7865 4.42744C11.9097 4.43703 12.034 4.43751 12.1214 4.42835L12.1232 4.42818C12.256 4.41526 13.3456 4.25576 14.4301 4.09342C14.9693 4.01272 15.5029 3.93197 15.9087 3.86954C16.0596 3.84632 16.1926 3.82567 16.3016 3.80851C16.0679 3.67418 15.7513 3.49567 15.4064 3.30419C14.6932 2.90909 14.3561 2.72341 14.1423 2.63326C14.0416 2.59078 13.9789 2.57432 13.9238 2.56649C13.8638 2.55795 13.8036 2.55794 13.6929 2.55859L13.6914 2.30859L13.6963 2.55855L13.6962 2.55855L13.6959 2.55856L13.6946 2.5586L13.6902 2.55881L13.6752 2.55976C13.6628 2.56065 13.6466 2.56197 13.6267 2.56376C13.5869 2.56734 13.5344 2.57257 13.4702 2.57938C13.3418 2.59297 13.1695 2.61251 12.9634 2.63682C12.5514 2.68541 12.0065 2.75274 11.4126 2.82884C10.8396 2.90374 10.3042 2.97488 9.90314 3.02914Z" stroke="black" stroke-width="0.5"/>
<path d="M9.85905 3.87755C10.9208 4.5496 11.0682 4.65203 11.0682 4.7045C11.0682 4.8444 11.0358 4.8519 8.33008 5.25662L8.21944 5.27318C5.88928 5.62176 5.80959 5.63368 5.50947 5.62138C5.3146 5.61388 5.15721 5.5939 5.08975 5.56891L9.85905 3.87755ZM9.85905 3.87755C9.19449 3.45534 8.60489 3.09808 8.54743 3.08059L9.85905 3.87755ZM5.18434 5.33667C5.18907 5.3379 5.1961 5.33957 5.20582 5.34153C5.22552 5.34551 5.25126 5.34967 5.28297 5.35365C5.34639 5.36161 5.42707 5.36803 5.51908 5.37156L5.51971 5.37159C5.7935 5.38281 5.83534 5.37703 8.29309 5.00938L8.32492 5.22214L8.29309 5.00938C9.56948 4.81845 10.243 4.71704 10.6001 4.6488C10.4222 4.5313 10.1475 4.35597 9.72534 4.08879L9.72498 4.08857C9.39385 3.87818 9.08178 3.68423 8.84584 3.541C8.72772 3.46929 8.62965 3.41088 8.55821 3.36965C8.52232 3.34894 8.49458 3.3334 8.47505 3.32295C8.47264 3.32166 8.47047 3.32051 8.46854 3.3195C8.46378 3.31872 8.45766 3.31778 8.45002 3.31671C8.42734 3.31355 8.39813 3.3102 8.36414 3.30701C8.29615 3.30061 8.21461 3.29533 8.13763 3.293L8.13603 3.29295C7.89089 3.28395 7.67472 3.30881 5.52939 3.5883C4.88381 3.67322 4.28703 3.7525 3.84578 3.81179C3.6251 3.84144 3.44352 3.86607 3.31426 3.88389C3.27785 3.88891 3.24569 3.89337 3.21806 3.89725C3.37804 4.02364 3.63415 4.21467 4.03246 4.51154L3.88308 4.71198L4.03228 4.51141C4.33865 4.73931 4.62382 4.94743 4.83929 5.10068C4.94722 5.17743 5.03644 5.23956 5.10159 5.28325C5.13437 5.30524 5.15932 5.32139 5.17667 5.33204C5.17966 5.33388 5.18221 5.33541 5.18434 5.33667ZM10.8622 4.83428C10.8662 4.83904 10.8689 4.84151 10.8693 4.84155C10.8696 4.8416 10.8676 4.83922 10.8622 4.83428Z" stroke="black" stroke-width="0.5"/>
<path d="M22.5729 3.36787L22.5729 3.36787L22.5729 3.36787ZM22.5729 3.36787C22.4205 3.33039 22.1582 3.31041 22.0233 3.3229C21.7735 3.34788 17.946 3.93499 17.8786 3.95747L22.5729 3.36787ZM21.1741 5.57154L21.1745 5.57156C21.3749 5.58211 21.4479 5.57393 23.4516 5.22271L23.4518 5.22268C24.0232 5.12287 24.5502 5.02808 24.9384 4.95641C25.0337 4.93883 25.1204 4.92267 25.1974 4.90818C25.1605 4.8893 25.1214 4.86939 25.0804 4.84859C24.7979 4.70535 24.4272 4.52152 24.0536 4.33883C23.68 4.15615 23.3044 3.97511 23.0123 3.83745C22.8661 3.76854 22.7417 3.71098 22.6494 3.66964C22.603 3.64891 22.5661 3.63287 22.5391 3.62172C22.518 3.61297 22.509 3.60984 22.5081 3.60941C22.3803 3.579 22.1517 3.5623 22.0473 3.57175C21.9267 3.58407 20.9204 3.73499 19.9204 3.88824C19.4224 3.96456 18.9302 4.04078 18.5584 4.09931C18.4607 4.11469 18.3714 4.12883 18.2926 4.14142C18.3272 4.16103 18.3639 4.1817 18.4024 4.20331C18.6706 4.35388 19.0226 4.54808 19.3774 4.74172C19.7323 4.93536 20.0892 5.128 20.3674 5.27548C20.5066 5.34929 20.6252 5.41135 20.7137 5.45644C20.7925 5.49658 20.8336 5.51596 20.8463 5.52198C20.8497 5.52356 20.8511 5.52422 20.8507 5.52409C20.9024 5.54134 21.0369 5.56456 21.1741 5.57154ZM25.5731 4.83387C25.573 4.83387 25.5716 4.8342 25.5694 4.83484C25.572 4.83418 25.5732 4.83386 25.5731 4.83387ZM25.5455 5.0937C25.5465 5.0944 25.5472 5.09488 25.5476 5.09512C25.5476 5.09512 25.5476 5.09511 25.5476 5.09511C25.5473 5.09487 25.5466 5.0944 25.5455 5.0937ZM17.9356 4.20074C17.9356 4.20074 17.9364 4.20058 17.9377 4.20027L17.9356 4.20074Z" stroke="black" stroke-width="0.5"/>
<path d="M5.0998 11.8546C5.02236 11.8197 3.04619 10.0284 2.94375 9.90096C2.84382 9.77604 2.76637 9.57118 2.7214 9.31386C2.70142 9.20393 2.64645 8.40447 2.59899 7.54005L5.0998 11.8546ZM5.0998 11.8546C5.14727 11.8771 5.16976 11.8746 5.20723 11.8397L5.0998 11.8546ZM2.84861 7.52634L2.84857 7.52566C2.83208 7.23955 2.81448 6.9308 2.79732 6.62962C2.76254 6.01942 2.72953 5.44033 2.7111 5.14373L2.84861 7.52634ZM2.84861 7.52634C2.87229 7.95762 2.89783 8.37241 2.91991 8.69269M2.84861 7.52634L2.91991 8.69269M2.96739 9.26919L2.96767 9.27082M2.96739 9.26919L2.96738 9.26913L2.96767 9.27082M2.96739 9.26919C2.96742 9.26938 2.96723 9.26832 2.96683 9.26562M2.96739 9.26919L2.96683 9.26562M2.96767 9.27082C3.00952 9.51028 3.077 9.66733 3.13897 9.74479L2.94376 9.90096L3.1386 9.74432L3.13866 9.74439C3.14016 9.74594 3.16756 9.77444 3.23549 9.83944C3.29812 9.89939 3.38295 9.97895 3.48301 10.0718C3.68295 10.2573 3.94122 10.4936 4.19903 10.7272C4.45686 10.9609 4.71352 11.1913 4.91024 11.3653C4.96023 11.4094 5.00613 11.4498 5.04705 11.4855M2.96767 9.27082L5.04705 11.4855M5.04705 11.4855C5.04909 11.3768 5.04495 11.2209 5.03492 10.9911L5.0349 10.9908C4.9999 10.1658 4.96741 9.34088 4.90994 7.79929C4.89624 7.43554 4.88068 7.08891 4.8667 6.82337C4.85971 6.69049 4.85315 6.57865 4.84746 6.49544C4.84461 6.45374 4.84204 6.42016 4.83981 6.39516C4.83804 6.37529 4.83684 6.36513 4.83642 6.36163C4.83624 6.3601 4.83621 6.35984 4.83634 6.36059L4.83609 6.35916C4.79948 6.15091 4.73284 5.97867 4.68416 5.90873C4.68239 5.90693 4.67956 5.90411 4.67541 5.90016C4.66278 5.88814 4.6438 5.87112 4.61737 5.84852C4.56472 5.80351 4.48964 5.74242 4.39178 5.66512C4.19647 5.51085 3.91729 5.29741 3.56052 5.0292L3.56047 5.02917C3.25891 4.80238 2.98184 4.59692 2.77891 4.44837C2.74075 4.42044 2.7053 4.39458 2.67287 4.37102C2.67287 4.37118 2.67287 4.37133 2.67288 4.37149C2.67384 4.41705 2.67609 4.48088 2.67949 4.55898C2.68627 4.71475 2.69742 4.92238 2.7111 5.14364L5.04705 11.4855ZM2.91991 8.69269C2.93095 8.85293 2.94109 8.98882 2.94965 9.09101M2.91991 8.69269L2.94965 9.09101M2.94965 9.09101C2.95393 9.14218 2.95776 9.18406 2.96104 9.21592M2.94965 9.09101L2.96104 9.21592M2.96104 9.21592C2.96268 9.23186 2.96411 9.2446 2.96533 9.25433M2.96104 9.21592L2.96533 9.25433M2.96533 9.25433L2.96683 9.26562M2.96533 9.25433L2.96683 9.26562M5.23513 11.6449C5.23894 11.6477 5.23831 11.647 5.23442 11.6443L5.23513 11.6449ZM5.02814 11.6695C5.02821 11.6697 5.02888 11.6685 5.02992 11.6655C5.02859 11.6677 5.02807 11.6693 5.02814 11.6695Z" stroke="black" stroke-width="0.5"/>
<path d="M14.9912 6.55641C14.9915 6.5565 14.9916 6.55658 14.9918 6.55664C15.0681 6.57826 15.1531 6.59045 15.3878 6.58808V6.58807H15.3903C15.6667 6.58807 15.7959 6.56967 17.8949 6.19718L17.8954 6.1971C18.5072 6.08971 19.0733 5.98922 19.4929 5.91373C19.683 5.87953 19.8427 5.85051 19.9629 5.82832C19.9227 5.80555 19.8793 5.781 19.8329 5.75485C19.5666 5.6047 19.2049 5.40269 18.812 5.18566L18.8034 5.1809C18.015 4.74539 17.6411 4.53886 17.41 4.43854C17.2995 4.3906 17.2341 4.37271 17.1798 4.36453C17.1214 4.35574 17.0651 4.35608 16.9559 4.35737C16.8992 4.35859 16.8445 4.36039 16.8024 4.36242C16.781 4.36346 16.7643 4.36448 16.7527 4.3654L16.7457 4.36604C16.736 4.36789 16.7275 4.36917 16.7267 4.36931L16.688 4.37539L16.5516 4.3962C16.4352 4.41381 16.2695 4.43866 16.0668 4.46896C15.6614 4.52955 15.1074 4.61201 14.5028 4.70194C13.4083 4.86605 12.8178 4.95523 12.4959 5.01691C12.6931 5.14599 13.0132 5.34805 13.5323 5.6746L13.5323 5.67461C14.0205 5.98179 14.3721 6.19977 14.6141 6.34472C14.7352 6.4173 14.827 6.47038 14.8937 6.5068C14.9584 6.5421 14.9862 6.55422 14.9912 6.55641ZM16.7431 4.36628C16.7418 4.36643 16.742 4.36644 16.7433 4.36626L16.7431 4.36628ZM13.4004 5.8842L13.4 5.88483L13.4004 5.8842Z" stroke="black" stroke-width="0.5"/>
<path d="M10.9101 5.2435L10.9101 5.24326C10.9592 5.23495 11.0949 5.2337 11.254 5.24406C11.3288 5.24892 11.4011 5.25585 11.4607 5.26386C11.4905 5.26787 11.5156 5.27195 11.5353 5.27583C11.5451 5.27776 11.5528 5.27948 11.5585 5.28092L10.9101 5.2435ZM10.9101 5.2435L10.8994 5.24484M10.9101 5.2435L10.8994 5.24484M10.8994 5.24484C10.8999 5.24478 10.8961 5.24529 10.8844 5.24699L10.8412 5.25332L10.6874 5.27619L10.1485 5.35704C9.70018 5.42448 9.09193 5.51628 8.43245 5.6162L8.43199 5.61627M10.8994 5.24484L8.43199 5.61627M8.43199 5.61627C7.77293 5.71488 7.15902 5.80909 6.70077 5.88141C6.47155 5.91758 6.28178 5.94821 6.14496 5.97113C6.09761 5.97906 6.05698 5.986 6.02347 5.99189M8.43199 5.61627L6.02347 5.99189M6.02347 5.99189C6.26109 6.17328 6.69315 6.49439 7.1308 6.81578C7.43021 7.03566 7.72635 7.25141 7.95299 7.41451C8.06641 7.49614 8.16177 7.5641 8.2312 7.61265C8.26605 7.63702 8.29334 7.65578 8.31268 7.6687C8.31943 7.6732 8.32428 7.67635 8.32752 7.67843C8.44598 7.72661 8.65609 7.75842 8.89053 7.74515L8.89151 7.7451C8.89151 7.7451 8.89162 7.74509 8.89187 7.74508C8.89214 7.74506 8.89256 7.74503 8.89314 7.74499L8.89802 7.74457L8.9149 7.74281C8.92908 7.74121 8.94749 7.73891 8.97038 7.73583C9.01611 7.72968 9.07671 7.72085 9.15147 7.70944C9.30082 7.68664 9.50332 7.65405 9.74975 7.61321C10.2424 7.53156 10.908 7.41741 11.6696 7.28382C13.0046 7.04964 13.6827 6.92964 14.0333 6.85327C14.0434 6.85106 14.0532 6.8489 14.0627 6.84679C14.016 6.81591 13.9643 6.78193 13.9083 6.74536C13.6543 6.57964 13.3167 6.3637 12.9749 6.14782C12.6331 5.93196 12.2881 5.71677 12.0195 5.55253C11.885 5.47031 11.7706 5.40146 11.6857 5.35183C11.6431 5.32693 11.6093 5.30766 11.5847 5.29424C11.572 5.28732 11.5643 5.28336 11.5604 5.28141L6.02347 5.99189ZM14.3094 7.01627L14.3094 7.01629L14.3094 7.01627Z" stroke="black" stroke-width="0.5"/>
<path d="M21.6296 6.25575L21.6292 6.25587C21.511 6.29078 21.3784 6.4116 21.3031 6.62111C21.3019 6.6293 21.3004 6.64093 21.2985 6.65646C21.294 6.69343 21.2882 6.74613 21.2814 6.81328C21.2677 6.94721 21.2501 7.13385 21.2299 7.35682C21.1896 7.80251 21.1393 8.39047 21.0901 8.98595C20.991 10.1867 20.8989 11.391 20.8989 11.5474C20.8989 11.6259 20.9097 11.6669 20.9191 11.6883C20.9263 11.7049 20.9362 11.7183 20.96 11.7341L20.96 11.7341L20.962 11.7355C20.9702 11.7411 20.9745 11.7434 20.9763 11.7442C20.9788 11.7447 20.9886 11.746 21.0109 11.7445C21.0806 11.74 21.1981 11.7157 21.442 11.6567L21.442 11.6567L21.444 11.6562C21.5675 11.6274 21.8864 11.5509 22.2882 11.4544C22.6154 11.3759 22.9976 11.2842 23.374 11.1943C23.7916 11.0946 24.1804 10.9992 24.4701 10.9264C24.615 10.89 24.7345 10.8594 24.8202 10.8367C24.8631 10.8254 24.8966 10.8163 24.9202 10.8096C24.9288 10.8071 24.9348 10.8054 24.9389 10.8041C24.9744 10.7838 25.0323 10.7336 25.0918 10.6523C25.1525 10.5691 25.1941 10.4817 25.2098 10.4168C25.2099 10.4159 25.2101 10.4148 25.2103 10.4134C25.2112 10.406 25.2131 10.3919 25.216 10.3687L25.2346 10.2187C25.2501 10.0913 25.2718 9.9119 25.298 9.6935C25.3505 9.25686 25.421 8.66504 25.4972 8.02319C25.5959 7.18007 25.6625 6.59124 25.7026 6.20544C25.7227 6.01226 25.7359 5.87189 25.7432 5.77666C25.7469 5.72877 25.7488 5.69481 25.7495 5.67238C25.7496 5.66937 25.7497 5.66674 25.7497 5.66445C25.7334 5.60563 25.7076 5.5747 25.6889 5.56028C25.6709 5.54642 25.6471 5.53766 25.61 5.54347C25.2799 5.59685 24.3029 5.76933 23.3941 5.93241C22.94 6.01388 22.5041 6.09283 22.1759 6.15309C22.0118 6.18324 21.8751 6.20864 21.7766 6.22733C21.7118 6.23963 21.6707 6.24777 21.6489 6.25211C21.6337 6.25511 21.6278 6.25628 21.6296 6.25575ZM21.3045 6.61189C21.3049 6.61011 21.3051 6.60908 21.3051 6.60901L21.3045 6.61189ZM25.7542 5.6826L25.754 5.68145L25.7542 5.6826Z" stroke="black" stroke-width="0.5"/>
<path d="M5.74122 6.66904C5.65373 6.60441 5.57785 6.54869 5.51629 6.50384C5.51344 6.54725 5.51175 6.60192 5.51175 6.67063L5.51174 6.67251C5.50929 6.9978 5.67574 11.4637 5.69539 11.6849C5.70433 11.7664 5.73019 11.8759 5.7663 11.9831C5.80187 12.0888 5.84024 12.1709 5.86799 12.2135C5.87029 12.216 5.87606 12.2224 5.887 12.2337C5.90606 12.2534 5.93323 12.2806 5.96838 12.3149C6.03841 12.3834 6.13573 12.4761 6.25361 12.5868C6.48907 12.808 6.80343 13.0981 7.13877 13.4035C7.72025 13.9311 8.02299 14.2042 8.19109 14.3456C8.19974 14.3528 8.2079 14.3596 8.21561 14.366C8.21658 14.3163 8.21619 14.2453 8.21462 14.1393L8.21461 14.1386C8.16705 10.2011 8.15198 9.15853 8.13333 8.9609C8.11921 8.82008 8.08948 8.67445 8.06512 8.60831L8.06511 8.60832L8.06442 8.60639C8.06126 8.59761 8.05829 8.58931 8.05547 8.58145C8.02655 8.50073 8.01416 8.46617 7.99409 8.43107C7.97574 8.39897 7.94531 8.35799 7.86625 8.28551C7.70744 8.13991 7.40933 7.91664 6.77962 7.445C6.74205 7.41686 6.70329 7.38784 6.66332 7.35789L6.66275 7.35747C6.30849 7.09052 5.98186 6.8468 5.74122 6.66904Z" stroke="black" stroke-width="0.5"/>
<path d="M15.2253 12.9469C15.2251 12.9392 15.2249 12.9294 15.2248 12.9171C15.2244 12.8772 15.2247 12.8198 15.2255 12.7463C15.2273 12.5997 15.2315 12.3945 15.2375 12.1494C15.2496 11.6595 15.2688 11.0133 15.2902 10.3642C15.3116 9.71525 15.335 9.06413 15.3555 8.56445C15.3657 8.3145 15.3752 8.10311 15.3832 7.94906C15.3872 7.87189 15.3909 7.81014 15.394 7.76551C15.3958 7.73921 15.3972 7.72344 15.398 7.71528C15.3984 7.70997 15.3986 7.70789 15.3985 7.70824M15.2253 12.9469L15.3977 7.71169C15.3981 7.70968 15.3983 7.70846 15.3985 7.70824M15.2253 12.9469C15.2464 13.0098 15.2719 13.0399 15.2903 13.0546C15.308 13.0688 15.337 13.0831 15.3923 13.0837C15.3943 13.0833 15.4071 13.0816 15.437 13.0761C15.4749 13.0691 15.5272 13.0585 15.5929 13.0447C15.7238 13.0171 15.9024 12.9776 16.1134 12.9296C16.535 12.8337 17.0822 12.7052 17.6288 12.5744C18.1754 12.4435 18.7204 12.3104 19.1377 12.2056C19.3465 12.1531 19.5223 12.1079 19.6501 12.0736C19.7141 12.0564 19.7647 12.0423 19.8008 12.0317L15.2253 12.9469ZM15.3985 7.70824C15.4104 7.65742 15.4425 7.58616 15.4939 7.51231C15.5464 7.43674 15.6064 7.37677 15.6565 7.34338C15.6717 7.33328 15.6838 7.32431 15.6932 7.31715C15.6997 7.31216 15.7025 7.31001 15.7043 7.3086L15.3985 7.70824ZM19.833 12.0233L19.8315 12.0241C19.832 12.0238 19.8326 12.0236 19.833 12.0233C19.8383 12.0207 19.8416 12.0193 19.8415 12.0192C19.8415 12.0191 19.8407 12.0193 19.839 12.0199M19.833 12.0233L20.4361 6.53185C20.4677 6.56724 20.498 6.631 20.4993 6.72773C20.4992 6.72882 20.4991 6.73317 20.4986 6.74244L20.4959 6.7901C20.4935 6.83036 20.4898 6.88574 20.4851 6.95478C20.4756 7.09274 20.4619 7.28349 20.445 7.51338C20.4113 7.97301 20.3651 8.58786 20.3152 9.24727C20.3108 9.30328 20.3066 9.35805 20.3024 9.41162C20.207 10.6425 20.1611 11.2343 20.1159 11.5476C20.0922 11.7114 20.072 11.7722 20.0581 11.801C20.0477 11.8227 20.0408 11.8304 19.9986 11.8775C19.9919 11.885 19.9843 11.8934 19.9757 11.9031L19.9753 11.9035C19.956 11.9252 19.9267 11.953 19.8953 11.9787C19.88 11.9912 19.8658 12.0019 19.8537 12.0103C19.8478 12.0144 19.8429 12.0175 19.839 12.0199M19.833 12.0233C19.833 12.0233 19.8335 12.0231 19.8345 12.0225M19.833 12.0233L19.8345 12.0225M19.839 12.0199C19.839 12.0199 19.839 12.0199 19.8389 12.0199M19.839 12.0199L19.8389 12.0199M17.7286 6.9291C17.9471 6.89021 18.1892 6.84715 18.4572 6.79939L18.4134 6.55326C19.4027 6.37838 20.2546 6.23348 20.3046 6.23098C20.5619 6.22348 20.7468 6.43084 20.7493 6.72814C20.7493 6.80559 20.6644 7.94732 20.5644 9.26644C20.3873 11.5502 20.3706 11.8081 20.2402 11.9797L17.7286 6.9291ZM17.7286 6.9291C16.7043 7.11137 16.1947 7.20204 15.93 7.25524M17.7286 6.9291L15.93 7.25524M15.93 7.25524C15.7753 7.28632 15.7233 7.30123 15.7051 7.30797L15.93 7.25524ZM19.8345 12.0225L19.8389 12.0199M19.8345 12.0225L19.8389 12.0199" stroke="black" stroke-width="0.5"/>
<path d="M9.07238 8.48603C9.07432 8.48543 9.08216 8.48286 9.09872 8.47843C9.12424 8.47161 9.16112 8.46275 9.21192 8.45156C9.31324 8.42924 9.46133 8.39948 9.66729 8.36025C10.0787 8.28188 10.7131 8.16722 11.6487 8.00107C12.339 7.87874 12.9835 7.76707 13.4661 7.6857C13.7075 7.64501 13.9078 7.61198 14.0529 7.58903C14.1255 7.57753 14.1835 7.56869 14.2255 7.56271C14.2528 7.55882 14.2686 7.55686 14.2763 7.5559C14.2801 7.55544 14.2819 7.55521 14.2821 7.55513C14.3549 7.55453 14.3914 7.56218 14.4133 7.57028C14.4325 7.57737 14.4554 7.59019 14.4915 7.62712L9.07238 8.48603ZM9.07238 8.48603C8.96055 8.5384 8.84666 8.65209 8.77607 8.80281L8.77608 8.80281L8.77526 8.80452L8.72037 8.91944L8.7247 9.29824C8.7247 9.29829 8.7247 9.29834 8.72471 9.29839C8.73722 10.2995 8.80714 13.997 8.81691 14.217L8.81693 14.2172C8.82275 14.3511 8.83797 14.4173 8.85497 14.4562C8.86799 14.486 8.88736 14.5128 8.94093 14.5508C8.99327 14.5874 8.99407 14.5859 8.99427 14.5855C8.99429 14.5855 8.9943 14.5855 8.99434 14.5855C9.00345 14.5875 9.04244 14.593 9.16973 14.5736C9.42295 14.5351 9.89774 14.4215 10.8971 14.1824C11.3936 14.0623 11.9224 13.9357 12.3729 13.8277C12.8155 13.7217 13.1825 13.6338 13.3694 13.588L13.3694 13.588L13.3709 13.5876C13.5574 13.5432 13.7367 13.4976 13.8748 13.4602C13.944 13.4415 14.0016 13.4252 14.0441 13.4123C14.0835 13.4004 14.098 13.3949 14.0981 13.3952C14.0981 13.3953 14.0967 13.3961 14.0941 13.3974L14.0958 13.3965C14.1222 13.3836 14.1756 13.3443 14.2355 13.2822C14.2945 13.221 14.3363 13.1623 14.3529 13.1278L14.5781 13.2362L9.07238 8.48603Z" stroke="black" stroke-width="0.5"/>
<path d="M1.28197 9.00539C1.06958 8.81289 0.860154 8.62459 0.697644 8.48034C0.709384 8.73802 0.741139 9.1778 0.79944 9.95204C0.861821 10.7705 0.929264 11.6772 0.949399 11.969C0.994219 12.5564 1.01519 12.663 1.09183 12.8694L1.09183 12.8694L1.0924 12.871C1.10505 12.9058 1.11202 12.9218 1.1249 12.943C1.14018 12.968 1.16756 13.006 1.22664 13.0753C1.3461 13.2154 1.5653 13.4494 1.99872 13.9092L1.99913 13.9096C2.24448 14.1712 2.47334 14.4112 2.64425 14.5874C2.64802 14.5913 2.65177 14.5952 2.65549 14.599C2.63876 14.1967 2.58673 13.2982 2.53071 12.4104C2.49686 11.8738 2.46185 11.3458 2.43299 10.9423C2.41855 10.7405 2.40571 10.5706 2.39534 10.4466C2.39015 10.3844 2.38567 10.3349 2.382 10.2991C2.37865 10.2665 2.37683 10.2547 2.37704 10.2546C2.37711 10.2546 2.37744 10.2561 2.37806 10.2587L2.37738 10.2557C2.36124 10.1841 2.33197 10.0959 2.29877 10.0172C2.28237 9.97825 2.26626 9.94465 2.25204 9.91873C2.24004 9.89684 2.23261 9.88638 2.23071 9.88369C2.23011 9.88285 2.23005 9.88277 2.23057 9.88336L2.22974 9.88242C2.2298 9.88249 2.22762 9.88008 2.22186 9.8742L2.2005 9.85292C2.18265 9.83539 2.1591 9.81275 2.13032 9.78545C2.07286 9.73092 1.99672 9.65985 1.908 9.57778C1.73068 9.41375 1.505 9.20754 1.28197 9.00539Z" stroke="black" stroke-width="0.5"/>
<path d="M3.09839 11.8025L3.09843 11.8031C3.1231 12.2397 3.16221 12.8957 3.19493 13.4444C3.20524 13.6173 3.21492 13.7796 3.2233 13.921L3.22331 13.921C3.29069 15.059 3.31224 15.1673 3.41305 15.3673C3.41542 15.3705 3.41938 15.3757 3.42545 15.3832C3.44112 15.4028 3.46397 15.4302 3.49395 15.465C3.55363 15.5344 3.6366 15.6279 3.7359 15.738C3.93422 15.9578 4.19403 16.2398 4.45467 16.519C4.71533 16.7982 4.97589 17.0736 5.17571 17.2803C5.21 17.3158 5.24237 17.3491 5.27255 17.38C5.27146 17.0731 5.25123 16.5241 5.21226 15.527L5.21225 15.5267C5.16221 14.2082 5.13549 13.5279 5.11139 13.1468C5.08769 12.7722 5.06772 12.7104 5.03826 12.623C5.00834 12.5377 4.96934 12.444 4.9481 12.401C4.9461 12.3988 4.94375 12.3963 4.94103 12.3934C4.92495 12.3764 4.90129 12.3523 4.87013 12.3214C4.80813 12.2598 4.72164 12.1763 4.61808 12.0777C4.41125 11.8808 4.13998 11.6273 3.86866 11.3766C3.59734 11.1258 3.32685 10.8787 3.12162 10.6945C3.09301 10.6689 3.06575 10.6445 3.04001 10.6216C3.04319 10.8401 3.06279 11.1983 3.09839 11.8025ZM4.95638 12.4102C4.95739 12.4115 4.958 12.4122 4.95806 12.4123C4.95813 12.4123 4.95762 12.4117 4.95638 12.4102ZM2.97481 13.9357L2.97481 13.9357L2.97481 13.9357Z" stroke="black" stroke-width="0.5"/>
<path d="M23.094 12.0552L23.0944 12.0551C23.61 11.929 24.0847 11.8142 24.4348 11.731C24.6099 11.6893 24.7532 11.6557 24.8546 11.6326C24.9055 11.621 24.9448 11.6123 24.972 11.6065C24.9735 11.6062 24.9749 11.6059 24.9762 11.6056C24.9814 11.6079 24.9877 11.6111 24.9947 11.6155C25.0056 11.6223 25.0153 11.6301 25.0227 11.6374C25.0277 11.6423 25.0304 11.6458 25.0316 11.6475C25.0319 11.6483 25.0324 11.6496 25.033 11.6513C25.0349 11.6569 25.0371 11.6648 25.0392 11.6748C25.0436 11.6954 25.046 11.718 25.046 11.7373C25.046 11.7348 25.0459 11.7355 25.0455 11.741C25.045 11.7474 25.044 11.7606 25.0419 11.783C25.0387 11.8179 25.0339 11.8663 25.0276 11.9269C25.0151 12.0481 24.9969 12.2156 24.9744 12.4176C24.9295 12.8214 24.8678 13.3612 24.8004 13.9392C24.6891 14.8782 24.6257 15.4042 24.5833 15.7107C24.5395 16.0282 24.5209 16.0796 24.5117 16.0999C24.4853 16.157 24.444 16.2198 24.3969 16.2742C24.3532 16.3247 24.315 16.3558 24.2918 16.3701C24.2872 16.3717 24.2782 16.3749 24.2635 16.3799C24.2347 16.3895 24.1941 16.4027 24.1422 16.4193C24.0387 16.4522 23.8942 16.4972 23.7188 16.5512C23.3683 16.659 22.8967 16.8018 22.3886 16.9541L23.094 12.0552ZM23.094 12.0552C22.5795 12.18 22.0989 12.2974 21.7392 12.386C21.5593 12.4303 21.4099 12.4674 21.3017 12.4945C21.2476 12.5081 21.2042 12.5192 21.1727 12.5274C21.1374 12.5365 21.1246 12.5401 21.125 12.54L21.1251 12.54L21.12 12.5416C21.1007 12.5473 21.0368 12.5839 20.958 12.6635C20.8829 12.7394 20.8313 12.8171 20.8131 12.8646M23.094 12.0552L20.8131 12.8646M20.8131 12.8646C20.8049 12.8868 20.7879 12.9618 20.7543 13.3128C20.7221 13.6499 20.676 14.2134 20.5985 15.1798C20.5499 15.7964 20.5068 16.3664 20.4772 16.788C20.4624 16.9989 20.451 17.1718 20.444 17.2946C20.4404 17.3561 20.4381 17.4038 20.4369 17.4367C20.4367 17.4412 20.4366 17.4452 20.4365 17.4489C20.4372 17.4503 20.438 17.4517 20.4389 17.4533C20.4473 17.4677 20.4571 17.4799 20.4636 17.4865C20.4671 17.49 20.4701 17.493 20.4728 17.4955C20.4757 17.4956 20.4789 17.4956 20.4826 17.4957C20.4856 17.4952 20.491 17.4943 20.4992 17.4927C20.5201 17.4886 20.5503 17.4819 20.5916 17.4718C20.6739 17.4516 20.7915 17.4203 20.9496 17.376C21.2652 17.2876 21.7344 17.1502 22.3886 16.9541L20.8131 12.8646ZM20.4362 17.4778C20.4362 17.4777 20.4362 17.4761 20.436 17.4733L20.4362 17.4778ZM25.0069 11.5997C25.0069 11.5996 25.0056 11.5998 25.0026 11.6004C25.0053 11.6 25.0069 11.5997 25.0069 11.5997Z" stroke="black" stroke-width="0.5"/>
<path d="M15.4793 13.9168C15.4863 13.9147 15.4966 13.9117 15.5107 13.9077C15.5427 13.8987 15.5885 13.8863 15.6475 13.8708C15.7652 13.8398 15.9309 13.7974 16.1328 13.7466C16.5363 13.645 17.0821 13.5103 17.6726 13.3667C18.2627 13.2232 18.8114 13.0929 19.2194 12.9985C19.4235 12.9513 19.5917 12.9133 19.7121 12.8871C19.7724 12.874 19.8195 12.8641 19.8526 12.8576C19.8673 12.8547 19.8781 12.8528 19.8854 12.8515C19.9296 12.8521 19.9551 12.8648 19.9696 12.8763C19.9832 12.8871 19.9997 12.9069 20.0102 12.9443C20.0101 12.9514 20.0098 12.9606 20.0094 12.9722C20.0082 13.0081 20.0057 13.0595 20.002 13.125C19.9947 13.2558 19.9829 13.4377 19.9679 13.6544C19.9379 14.0877 19.8953 14.6568 19.8507 15.2266C19.8061 15.7964 19.7595 16.3661 19.7214 16.8006C19.7023 17.0179 19.6855 17.2006 19.6721 17.3322C19.6655 17.3982 19.6598 17.45 19.6553 17.4864C19.6533 17.5018 19.6518 17.5132 19.6506 17.5211C19.5936 17.6755 19.45 17.8184 19.3069 17.8705L19.3012 17.8726L19.3012 17.8726C19.3007 17.8727 19.2995 17.8731 19.2976 17.8737C19.2917 17.8757 19.2785 17.88 19.2549 17.8875C19.2221 17.8978 19.1767 17.912 19.1196 17.9295C19.0056 17.9646 18.8471 18.0128 18.6555 18.0707C18.2724 18.1864 17.758 18.3406 17.2048 18.5054L17.2047 18.5055C16.4602 18.7278 15.9517 18.8772 15.6176 18.9709C15.4503 19.0178 15.3291 19.0501 15.2447 19.0705C15.1856 19.0848 15.1545 19.0906 15.1418 19.093C15.1338 19.0945 15.1332 19.0946 15.1377 19.0946C15.078 19.0946 15.0473 19.0774 15.0189 19.0274C15.0187 19.0257 15.0185 19.0236 15.0182 19.0211C15.0146 18.9863 15.0124 18.9163 15.0145 18.7624C15.0182 18.4799 15.0352 17.9563 15.068 16.9471L15.4793 13.9168ZM15.4793 13.9168C15.4274 13.9436 15.3546 14.0055 15.2867 14.0951C15.2179 14.186 15.1773 14.2747 15.1656 14.3328C15.1655 14.3353 15.1646 14.3476 15.1631 14.3763C15.1612 14.412 15.1588 14.4626 15.1559 14.5267C15.1503 14.6548 15.143 14.835 15.1345 15.054C15.1177 15.4919 15.0965 16.0841 15.0753 16.7245L15.4793 13.9168ZM19.6487 17.5322C19.6487 17.5323 19.6489 17.5314 19.6492 17.5295L19.6487 17.5322ZM20.0101 12.927C20.0101 12.9271 20.0101 12.9284 20.0103 12.9308L20.0101 12.927ZM20.0143 12.9615L20.0142 12.9611L20.0143 12.9615ZM15.4725 13.919C15.4706 13.9196 15.4699 13.9199 15.4699 13.9198C15.47 13.9198 15.4709 13.9195 15.4725 13.919Z" stroke="black" stroke-width="0.5"/>
<path d="M7.22045 19.4556C7.80307 20.0737 8.12222 20.4107 8.30498 20.5943C8.30585 20.5022 8.30561 20.3753 8.30491 20.1975H8.30491V20.1966C8.30491 19.8344 8.28996 18.6773 8.26998 17.6255L8.26997 17.625C8.26919 17.5783 8.26842 17.5327 8.26768 17.4882C8.25168 16.531 8.24394 16.0673 8.22263 15.8007C8.21177 15.6648 8.19822 15.5937 8.18261 15.5412C8.16758 15.4906 8.14904 15.4501 8.11297 15.3713C8.10969 15.3641 8.10627 15.3567 8.10269 15.3488L8.10266 15.3488C8.08154 15.3025 8.07089 15.2814 8.04893 15.2515C8.02335 15.2165 7.9789 15.1653 7.88546 15.0723C7.69815 14.8859 7.34936 14.566 6.65226 13.9278L6.65219 13.9277C6.20462 13.5177 5.92991 13.268 5.76032 13.1194C5.76033 13.1197 5.76033 13.1201 5.76034 13.1204C5.76265 13.2404 5.76682 13.4081 5.7724 13.6091C5.78355 14.0111 5.80024 14.5444 5.81865 15.0922C5.85561 16.1914 5.89916 17.3378 5.91869 17.6051L5.91871 17.6055C5.92556 17.7013 5.94643 17.8452 5.96394 17.9133L5.96403 17.9136C5.98394 17.9916 5.99886 18.0389 6.02355 18.089C6.04889 18.1404 6.08959 18.2046 6.16987 18.3052C6.33449 18.5115 6.63321 18.8319 7.22045 19.4556ZM5.75866 12.9362C5.75866 12.9361 5.75861 12.9369 5.75856 12.9385L5.75866 12.9362ZM8.48711 20.764C8.48711 20.764 8.487 20.7639 8.4868 20.7638L8.48711 20.764Z" stroke="black" stroke-width="0.5"/>
<path d="M1.1008 13.9189C1.11066 13.9291 1.1208 13.9396 1.13121 13.9504C1.36768 14.1955 1.73847 14.5906 2.29818 15.1927L2.2985 15.1931C2.52644 15.4374 2.61267 15.5478 2.66504 15.694C2.72238 15.854 2.7445 16.0712 2.7739 16.5494C2.7739 16.5494 2.7739 16.5494 2.7739 16.5494L1.1008 13.9189ZM1.1008 13.9189C1.12419 14.2937 1.17522 14.9922 1.22968 15.6949C1.2665 16.17 1.30439 16.641 1.33524 17.0032C1.35067 17.1844 1.36429 17.3378 1.37509 17.4507C1.38051 17.5073 1.38513 17.5528 1.38887 17.5862C1.39155 17.6101 1.39329 17.6232 1.39404 17.6288C1.39444 17.6319 1.39456 17.6327 1.39437 17.6319C1.42337 17.7664 1.44585 17.8396 1.55453 17.9982C1.6761 18.1756 1.89268 18.4394 2.31602 18.9472L1.1008 13.9189ZM2.31605 18.9472C2.60978 19.2993 2.81284 19.5422 2.95515 19.7088L2.31605 18.9472Z" stroke="black" stroke-width="0.5"/>
<path d="M8.6122 15.892C8.63218 15.6396 8.81706 15.3673 9.0519 15.2399L9.78141 20.9835C9.48661 21.071 9.1993 21.1434 9.14434 21.1434C9.01193 21.1434 8.83455 21.0535 8.76459 20.9486C8.73461 20.9036 8.70463 20.8087 8.69714 20.7362C8.67715 20.5488 8.5997 16.0519 8.6122 15.892ZM8.6122 15.892L8.86144 15.9114C8.86144 15.9114 8.86144 15.9114 8.86144 15.9114C8.86143 15.9115 8.86142 15.9116 8.86141 15.9117L8.6122 15.892ZM9.17282 15.4587L9.17112 15.4596C9.00474 15.5499 8.87437 15.7501 8.86144 15.9114C8.86147 15.9111 8.86145 15.9119 8.86141 15.914C8.86129 15.9202 8.86096 15.9376 8.86087 15.9713C8.86076 16.0119 8.86095 16.0676 8.86143 16.1366C8.86239 16.2745 8.86446 16.4634 8.86737 16.6867C8.87318 17.1333 8.8823 17.7158 8.89245 18.2994C8.9026 18.883 8.91375 19.4673 8.92362 19.9173C8.92855 20.1423 8.93315 20.3333 8.93714 20.4737C8.93913 20.544 8.94095 20.601 8.94257 20.6431C8.94338 20.6642 8.94411 20.6808 8.94476 20.6932C8.94526 20.7028 8.94561 20.7077 8.94572 20.7094C8.94578 20.7101 8.94578 20.7102 8.94573 20.7097L8.94581 20.7105C8.94747 20.7265 8.95259 20.7514 8.96074 20.7771C8.96461 20.7893 8.96843 20.7994 8.97156 20.8065C8.97252 20.8087 8.97328 20.8104 8.97382 20.8115C8.97458 20.8124 8.97573 20.8137 8.97734 20.8154C8.98082 20.8191 8.98579 20.8238 8.99248 20.8293C9.0061 20.8403 9.02399 20.8521 9.04484 20.8627C9.08461 20.8831 9.11876 20.8913 9.13729 20.8931C9.14195 20.8923 9.15361 20.8904 9.17476 20.886C9.20936 20.8788 9.25599 20.8679 9.31199 20.8538C9.42356 20.8258 9.56559 20.7868 9.71011 20.7439C11.2502 20.2843 12.2915 19.9721 12.9573 19.7703C13.2903 19.6693 13.5287 19.5961 13.6884 19.546C13.7684 19.5208 13.8276 19.5018 13.8686 19.4881C13.8994 19.4778 13.9138 19.4725 13.9183 19.4709C13.9686 19.4424 14.04 19.3782 14.1059 19.2892C14.1762 19.1943 14.212 19.1094 14.2185 19.0657C14.2184 19.066 14.2184 19.0661 14.2184 19.0659C14.2185 19.0652 14.219 19.0604 14.2199 19.0498C14.2209 19.0372 14.222 19.0202 14.2233 18.9986C14.2259 18.9556 14.2288 18.8976 14.2321 18.8262C14.2385 18.6837 14.2459 18.4911 14.2539 18.265C14.2698 17.813 14.2877 17.2293 14.3039 16.6495C14.3202 16.0696 14.3347 15.494 14.3437 15.0583C14.3482 14.8403 14.3514 14.6579 14.3527 14.5277C14.3533 14.4624 14.3535 14.4114 14.3532 14.376C14.3532 14.3693 14.3531 14.3634 14.353 14.3582C14.3405 14.3323 14.3157 14.2999 14.2774 14.2714C14.2355 14.2404 14.1968 14.2281 14.172 14.2259C14.1645 14.2274 14.1546 14.2295 14.1423 14.2322C14.1071 14.2399 14.0561 14.2515 13.9904 14.2666C13.8595 14.2968 13.6734 14.3407 13.4455 14.3948C12.9901 14.503 12.3698 14.6522 11.6942 14.8158C10.7698 15.0406 10.1493 15.1939 9.74833 15.2974C9.54762 15.3492 9.40405 15.388 9.30572 15.4167C9.22645 15.4399 9.18963 15.453 9.17723 15.4574C9.17237 15.4592 9.17126 15.4596 9.17282 15.4587Z" stroke="black" stroke-width="0.5"/>
<path d="M3.36539 16.3333C3.42394 16.394 3.4948 16.4687 3.58081 16.5602C3.8479 16.8448 4.31486 17.3442 4.61944 17.6712L4.61974 17.6716L4.63022 17.6828C5.03046 18.111 5.17467 18.2654 5.25213 18.4682C5.29035 18.5683 5.31475 18.6895 5.33196 18.8789C5.34778 19.053 5.35649 19.27 5.3684 19.5664L3.36539 16.3333ZM3.36539 16.3333C3.36998 16.4811 3.38073 16.6836 3.39803 16.9633L3.39805 16.9637C3.40034 17.0017 3.40305 17.0467 3.40613 17.0977C3.42988 17.4914 3.4751 18.2408 3.51052 18.8807C3.58984 20.2316 3.60625 20.3247 3.70458 20.5586C3.70695 20.5621 3.71071 20.5675 3.71628 20.5753C3.73147 20.5966 3.75358 20.6262 3.78249 20.664C3.84005 20.7392 3.92025 20.8409 4.01628 20.9609C4.20812 21.2006 4.46003 21.5092 4.71339 21.8158C4.96678 22.1223 5.22081 22.4257 5.41689 22.655C5.4416 22.6839 5.46534 22.7116 5.48798 22.7379C5.47942 22.3622 5.45121 21.6515 5.39692 20.284C5.38916 20.0887 5.38088 19.88 5.37204 19.657L3.36539 16.3333ZM5.52187 23.0155C5.53256 23.0081 5.55642 22.9939 5.59155 22.9869C5.63157 22.9789 5.66568 22.9842 5.68754 22.9907C5.69272 22.9923 5.69717 22.9939 5.70073 22.9953C5.70409 22.9966 5.70665 22.9978 5.70825 22.9985C5.70839 22.9986 5.70852 22.9986 5.70864 22.9987C5.72329 23.007 5.73437 23.0154 5.73999 23.02C5.73706 23.1411 5.7264 23.1635 5.70983 23.1799C5.70511 23.1845 5.69992 23.1887 5.69429 23.1945C5.64932 23.2395 5.63183 23.242 5.58686 23.217L5.52187 23.0155ZM5.52187 23.0155C5.5209 23.0166 5.51991 23.0179 5.51891 23.0191L5.52187 23.0155Z" stroke="black" stroke-width="0.5"/>
<path d="M20.341 18.6127C20.3401 18.6193 20.339 18.6285 20.3376 18.6406C20.3342 18.6709 20.3296 18.7143 20.3241 18.7701C20.3132 18.8813 20.2987 19.038 20.2819 19.2289C20.2482 19.6105 20.2052 20.1268 20.1616 20.6857L20.1615 20.6862C20.1581 20.7295 20.1547 20.7718 20.1514 20.8134C20.0703 21.8275 20.0307 22.3229 20.0255 22.5791C20.0241 22.6454 20.0255 22.6874 20.0273 22.7129C20.0316 22.7123 20.0364 22.7115 20.0418 22.7105C20.0736 22.705 20.1181 22.6947 20.1811 22.6771C20.4392 22.6051 20.9203 22.4361 21.8877 22.0944L21.8878 22.0944C22.3831 21.9197 22.8406 21.7558 23.179 21.6322C23.3483 21.5704 23.487 21.5189 23.5855 21.4814C23.6349 21.4625 23.6729 21.4477 23.6991 21.437C23.7052 21.4346 23.7103 21.4324 23.7145 21.4307C23.7477 21.4042 23.7892 21.3634 23.8296 21.3148C23.872 21.2639 23.9023 21.2175 23.9178 21.1865C23.9194 21.1797 23.9214 21.1699 23.924 21.1567C23.9304 21.1236 23.9384 21.077 23.9478 21.0174C23.9665 20.8987 23.9898 20.7359 24.0159 20.5428C24.068 20.157 24.1307 19.6553 24.1901 19.1538C24.2495 18.6523 24.3054 18.1523 24.3441 17.7701C24.3635 17.5787 24.3785 17.4183 24.3873 17.3025C24.3918 17.2442 24.3946 17.1995 24.3957 17.1687C24.3958 17.1668 24.3959 17.165 24.3959 17.1633C24.3937 17.1605 24.3912 17.158 24.3883 17.1558C24.3844 17.1529 24.3806 17.1511 24.3772 17.15C24.3734 17.1508 24.3689 17.1519 24.3636 17.1531C24.3367 17.1594 24.2981 17.1692 24.2476 17.1825C24.1472 17.2092 24.0067 17.2483 23.8338 17.2978C23.4884 17.3967 23.0181 17.5356 22.4905 17.6952C21.9366 17.8636 21.4671 18.0094 21.1277 18.1178C20.9578 18.1721 20.8215 18.2168 20.724 18.2501C20.6751 18.2668 20.6374 18.2801 20.6106 18.2902C20.5949 18.296 20.5864 18.2995 20.583 18.3009C20.4826 18.3632 20.3786 18.4966 20.341 18.6127ZM20.3426 18.6017C20.3426 18.6016 20.3425 18.6024 20.3422 18.6042L20.3426 18.6017ZM24.3945 17.1465C24.3946 17.1465 24.3937 17.1466 24.3916 17.147L24.3945 17.1465ZM24.4036 17.1792L24.403 17.1773L24.4036 17.1792ZM23.9154 21.1961C23.9154 21.1962 23.9156 21.1956 23.9159 21.1944L23.9154 21.1961ZM23.7306 21.4235C23.7305 21.4236 23.7294 21.4241 23.7275 21.4251C23.7297 21.424 23.7307 21.4235 23.7306 21.4235ZM20.019 22.7249L19.8673 22.9173L20.019 22.7249Z" stroke="black" stroke-width="0.5"/>
<path d="M14.9931 20.2118L14.9931 20.2117C15.0044 20.1804 15.046 20.1109 15.1121 20.0324C15.1713 19.962 15.2227 19.917 15.2478 19.8998C15.2547 19.8974 15.2637 19.8943 15.2754 19.8904C15.3064 19.88 15.3509 19.8655 15.4078 19.8473C15.5214 19.8109 15.6814 19.7607 15.8762 19.7002C16.2656 19.5792 16.7923 19.4176 17.3617 19.244C18.0056 19.0481 18.5333 18.8911 18.9084 18.7829C19.096 18.7287 19.2444 18.6871 19.3496 18.659C19.4024 18.6449 19.4427 18.6346 19.471 18.6279C19.481 18.6256 19.488 18.6241 19.4928 18.6231C19.5327 18.6256 19.5529 18.6428 19.5644 18.6637C19.5645 18.665 19.5646 18.6666 19.5648 18.6685C19.567 18.6986 19.5671 18.7588 19.5606 18.8876C19.5477 19.141 19.5118 19.6131 19.4405 20.5345L19.4405 20.5347C19.4335 20.6248 19.4269 20.7113 19.4206 20.7943C19.3451 21.7795 19.3071 22.275 19.2793 22.5422C19.264 22.689 19.2531 22.7523 19.2446 22.7856C19.2393 22.8059 19.2374 22.8097 19.2199 22.8435C19.2184 22.8463 19.2169 22.8494 19.2152 22.8526L19.2146 22.8538L19.2146 22.8539C19.1909 22.9004 19.1506 22.9571 19.1025 23.0087C19.0526 23.0622 19.0092 23.0942 18.9858 23.1059L18.9839 23.1068C18.9849 23.1063 18.9854 23.106 18.9854 23.106C18.9853 23.1058 18.9743 23.1105 18.9432 23.1224C18.9096 23.1353 18.8628 23.1528 18.804 23.1744C18.6867 23.2176 18.525 23.2761 18.3333 23.3448C17.95 23.4823 17.4488 23.6599 16.9479 23.8363C16.4469 24.0126 15.9466 24.1875 15.5652 24.3193C15.3744 24.3852 15.2139 24.4402 15.098 24.4792C15.04 24.4987 14.994 24.514 14.9613 24.5245C14.9455 24.5295 14.9339 24.5331 14.9259 24.5355C14.8936 24.5385 14.8588 24.526 14.8398 24.5112C14.8393 24.5082 14.8388 24.5048 14.8383 24.5007L14.9931 20.2118ZM14.9931 20.2118L14.9915 20.216M14.9931 20.2118L14.9915 20.216M14.9915 20.216C14.9855 20.2317 14.9719 20.2679 14.9555 20.5669M14.9915 20.216L14.9555 20.5669M14.9555 20.5669C14.9398 20.8547 14.9217 21.3568 14.8905 22.2736L14.9555 20.5669ZM15.235 19.9045C15.235 19.9045 15.2357 19.9043 15.2368 19.9038L15.235 19.9045ZM14.8905 22.2737C14.8718 22.8265 14.8562 23.3474 14.8459 23.7413C14.8407 23.9384 14.8369 24.1033 14.8347 24.2245C14.8336 24.2852 14.8329 24.3343 14.8326 24.3708L14.8326 24.4145C14.8326 24.4243 14.8328 24.4289 14.8328 24.43L14.8905 22.2737ZM14.9343 24.5344C14.934 24.5344 14.9337 24.5345 14.9334 24.5345L14.9343 24.5344Z" stroke="black" stroke-width="0.5"/>
<path d="M5.97564 19.1201C6.04182 19.1893 6.12227 19.2743 6.21297 19.3707C6.44039 19.6124 6.73052 19.9241 7.01798 20.2351C7.30545 20.5461 7.58978 20.8559 7.80562 21.0938C7.91362 21.2129 8.00394 21.3133 8.06876 21.3867C8.10128 21.4235 8.12656 21.4526 8.14416 21.4734C8.15306 21.4839 8.15821 21.4903 8.16072 21.4934C8.18447 21.5356 8.2308 21.6389 8.26068 21.7264L8.26107 21.7275C8.29113 21.8142 8.31519 21.9226 8.33279 22.2987C8.35035 22.6738 8.36094 23.291 8.3747 24.3817C8.3747 24.3818 8.3747 24.3818 8.3747 24.3819L5.97564 19.1201ZM5.97564 19.1201C5.97616 19.2176 5.97974 19.3454 5.98643 19.5147L5.98643 19.5148C5.9973 19.7945 6.00734 20.0538 6.01664 20.2942C6.07588 21.8244 6.1055 22.5897 6.13225 23.0016C6.14786 23.2421 6.1617 23.3458 6.17557 23.406C6.18459 23.4452 6.19167 23.4619 6.20868 23.5019C6.21624 23.5197 6.22577 23.5422 6.23831 23.5733L6.00644 23.6667C6.01549 23.6889 6.02244 23.7071 6.03017 23.7249C6.08435 23.8495 6.1772 23.9574 7.30307 25.3106M5.97564 19.1201L6.23788 23.5722C6.24252 23.5836 6.24625 23.5928 6.24937 23.6006C6.26101 23.6294 6.26406 23.637 6.27425 23.6544C6.28936 23.6801 6.31931 23.7236 6.39569 23.8204C6.53197 23.9931 6.7903 24.3036 7.30956 24.9276C7.36802 24.9978 7.4298 25.0721 7.49507 25.1505M7.30307 25.3106L7.49495 25.1504C7.49499 25.1504 7.49503 25.1505 7.49507 25.1505M7.30307 25.3106C8.07505 26.235 8.42981 26.6447 8.47478 26.6547L7.49507 25.1505M7.30307 25.3106L7.49525 25.1507C7.49519 25.1507 7.49513 25.1506 7.49507 25.1505M5.78857 18.9324C5.78857 18.9324 5.78923 18.9329 5.79054 18.9336C5.78922 18.9327 5.78856 18.9323 5.78857 18.9324Z" stroke="black" stroke-width="0.5"/>
<path d="M14.1208 22.4597L14.1208 22.4597L14.0549 24.5634L14.0155 24.6503C14.0155 24.6503 14.0155 24.6504 14.0155 24.6504C13.9641 24.7638 13.8626 24.8787 13.7729 24.935C13.7691 24.9365 13.7574 24.9415 13.733 24.951C13.6981 24.9647 13.649 24.9835 13.5865 25.0069C13.4618 25.0536 13.2876 25.1176 13.0762 25.1943C12.6536 25.3476 12.0848 25.551 11.472 25.7668L14.1208 22.4597ZM14.1208 22.4597C14.1546 21.3858 14.1713 20.8515 14.1737 20.5735C14.175 20.4317 14.1723 20.3699 14.1688 20.3407C14.1687 20.3403 14.1687 20.3398 14.1686 20.3394C14.1383 20.2877 14.1054 20.2707 14.0474 20.2716L14.0474 20.2717M14.1208 22.4597L14.0474 20.2717M14.0474 20.2717H14.0434M14.0474 20.2717H14.0434M14.0434 20.2717C14.0138 20.2717 13.9851 20.2728 13.9636 20.2742C13.958 20.2746 13.9533 20.275 13.9497 20.2753M14.0434 20.2717L13.9497 20.2753M13.9497 20.2753L13.9136 20.2864L13.777 20.328C13.6598 20.3636 13.4918 20.4145 13.2856 20.4768C12.8733 20.6014 12.308 20.772 11.6896 20.9581C11.0713 21.1442 10.497 21.3178 10.0697 21.4476C9.85605 21.5125 9.6794 21.5664 9.55253 21.6055C9.48905 21.625 9.43838 21.6408 9.40189 21.6522C9.36824 21.6628 9.35223 21.6681 9.34801 21.6694C9.34777 21.6695 9.34756 21.6696 9.34739 21.6696C9.31412 21.6832 9.2466 21.7275 9.17054 21.8003C9.09502 21.8726 9.04146 21.9439 9.02059 21.9869C8.99751 22.0369 8.99387 22.046 8.98953 22.0911C8.98286 22.1603 8.98193 22.2761 8.98193 22.5347C8.98318 23.0241 9.00123 24.0139 9.02184 24.8907C9.03213 25.3287 9.04305 25.7375 9.05277 26.0402C9.05764 26.1917 9.06219 26.3158 9.06618 26.4034C9.06767 26.4362 9.06906 26.4631 9.07031 26.484C9.07336 26.4875 9.07685 26.4912 9.08078 26.4951C9.10057 26.5149 9.12285 26.5313 9.14025 26.5407C9.1406 26.5409 9.14095 26.541 9.14128 26.5412C9.14154 26.5412 9.14182 26.5412 9.1421 26.5412C9.17389 26.5392 9.24401 26.5263 9.40626 26.4775C9.72389 26.3819 10.3114 26.1754 11.472 25.7669L13.9497 20.2753Z" stroke="black" stroke-width="0.5"/>
</svg>
